999
dxfrw 0.5.11
0
SECTION
2
HEADER
9
$ACADVER
1
AC1021
9
$HANDSEED
5
20000
9
$DWGCODEPAGE
3
ANSI_1252
9
$INSBASE
10
0
20
0
30
0
9
$EXTMIN
10
-100
20
-140
30
0
9
$EXTMAX
10
320
20
220
30
0
9
$LIMMIN
10
0
20
0
9
$LIMMAX
10
420
20
297
9
$ORTHOMODE
70
0
9
$LTSCALE
40
1
9
$TEXTSTYLE
7
STANDARD
9
$CLAYER
8
Coastline
9
$DIMASZ
40
2.5
9
$DIMLFAC
40
1
9
$DIMSCALE
40
1
9
$DIMEXO
40
0.625
9
$DIMEXE
40
1.25
9
$DIMTXT
40
2.2
9
$DIMTSZ
40
0
9
$DIMAUNIT
70
0
9
$DIMADEC
70
2
9
$DIMLUNIT
70
2
9
$DIMSTYLE
2
STANDARD
9
$DIMGAP
40
0.625
9
$DIMTIH
70
0
9
$LUNITS
70
2
9
$LUPREC
70
4
9
$AUNITS
70
0
9
$AUPREC
70
2
9
$SPLINESEGS
70
8
9
$GRIDMODE
70
1
9
$SNAPSTYLE
70
0
9
$GRIDUNIT
10
2
20
2
9
$PINSBASE
10
61.2560516151
20
93.0444458756
30
0
9
$PLIMMIN
10
0
20
0
9
$PLIMMAX
10
279.4
20
215.9
9
$INSUNITS
70
4
9
$PSVPSCALE
40
0.715159230203
0
ENDSEC
0
SECTION
2
CLASSES
0
ENDSEC
0
SECTION
2
TABLES
0
TABLE
2
VPORT
5
8
330
0
100
AcDbSymbolTable
70
1
0
VPORT
5
31
330
2
100
AcDbSymbolTableRecord
100
AcDbViewportTableRecord
2
*ACTIVE
70
0
10
0
20
0
11
1
21
1
12
80
22
125.75
13
0
23
0
14
10
24
10
15
2
25
2
16
0
26
0
36
1
17
0
27
0
37
0
40
177.5
41
1.87605633803
42
50
43
0
44
0
50
0
51
0
71
0
72
100
73
1
74
3
75
0
76
1
77
0
78
0
281
0
65
1
110
0
120
0
130
0
111
1
121
0
131
0
112
0
122
1
132
0
79
0
146
0
348
10020
60
3
61
5
292
1
282
1
141
0
142
0
63
250
421
3358443
0
ENDTAB
0
TABLE
2
LTYPE
5
5
330
0
100
AcDbSymbolTable
70
4
0
LTYPE
5
14
330
5
100
AcDbSymbolTableRecord
100
AcDbLinetypeTableRecord
2
ByBlock
70
0
3

72
65
73
0
40
0
0
LTYPE
5
15
330
5
100
AcDbSymbolTableRecord
100
AcDbLinetypeTableRecord
2
ByLayer
70
0
3

72
65
73
0
40
0
0
LTYPE
5
16
330
5
100
AcDbSymbolTableRecord
100
AcDbLinetypeTableRecord
2
Continuous
70
0
3
Solid line
72
65
73
0
40
0
0
LTYPE
5
32
330
5
100
AcDbSymbolTableRecord
100
AcDbLinetypeTableRecord
2
DOT
70
0
3
Dot . . . . . . . . . . . . . . . . . . . . . .
72
65
73
2
40
6.35
49
0
74
0
49
-6.35
74
0
0
LTYPE
5
33
330
5
100
AcDbSymbolTableRecord
100
AcDbLinetypeTableRecord
2
DOT2
70
0
3
Dot (.5x) .....................................
72
65
73
2
40
3.175
49
0
74
0
49
-3.175
74
0
0
LTYPE
5
34
330
5
100
AcDbSymbolTableRecord
100
AcDbLinetypeTableRecord
2
DOTX2
70
0
3
Dot (2x) .  .  .  .  .  .  .  .  .  .  .  .  .
72
65
73
2
40
12.7
49
0
74
0
49
-12.7
74
0
0
LTYPE
5
35
330
5
100
AcDbSymbolTableRecord
100
AcDbLinetypeTableRecord
2
DASHED
70
0
3
Dot . . . . . . . . . . . . . . . . . . . . . .
72
65
73
2
40
19.05
49
12.7
74
0
49
-6.35
74
0
0
LTYPE
5
36
330
5
100
AcDbSymbolTableRecord
100
AcDbLinetypeTableRecord
2
DASHED2
70
0
3
Dashed (.5x) _ _ _ _ _ _ _ _ _ _ _ _ _ _ _ _ _
72
65
73
2
40
9.525
49
6.35
74
0
49
-3.175
74
0
0
LTYPE
5
37
330
5
100
AcDbSymbolTableRecord
100
AcDbLinetypeTableRecord
2
DASHEDX2
70
0
3
Dashed (2x) ____  ____  ____  ____  ____  ___
72
65
73
2
40
38.1
49
25.4
74
0
49
-12.7
74
0
0
LTYPE
5
38
330
5
100
AcDbSymbolTableRecord
100
AcDbLinetypeTableRecord
2
DASHDOT
70
0
3
Dash dot __ . __ . __ . __ . __ . __ . __ . __
72
65
73
4
40
25.4
49
12.7
74
0
49
-6.35
74
0
49
0
74
0
49
-6.35
74
0
0
LTYPE
5
39
330
5
100
AcDbSymbolTableRecord
100
AcDbLinetypeTableRecord
2
DASHDOT2
70
0
3
Dash dot (.5x) _._._._._._._._._._._._._._._.
72
65
73
4
40
12.7
49
6.35
74
0
49
-3.175
74
0
49
0
74
0
49
-3.175
74
0
0
LTYPE
5
3A
330
5
100
AcDbSymbolTableRecord
100
AcDbLinetypeTableRecord
2
DASHDOTX2
70
0
3
Dash dot (2x) ____  .  ____  .  ____  .  ___
72
65
73
4
40
50.8
49
25.4
74
0
49
-12.7
74
0
49
0
74
0
49
-12.7
74
0
0
LTYPE
5
3B
330
5
100
AcDbSymbolTableRecord
100
AcDbLinetypeTableRecord
2
DIVIDE
70
0
3
Divide ____ . . ____ . . ____ . . ____ . . ____
72
65
73
6
40
31.75
49
12.7
74
0
49
-6.35
74
0
49
0
74
0
49
-6.35
74
0
49
0
74
0
49
-6.35
74
0
0
LTYPE
5
3C
330
5
100
AcDbSymbolTableRecord
100
AcDbLinetypeTableRecord
2
DIVIDE2
70
0
3
Divide (.5x) __..__..__..__..__..__..__..__.._
72
65
73
6
40
15.875
49
6.35
74
0
49
-3.175
74
0
49
0
74
0
49
-3.175
74
0
49
0
74
0
49
-3.175
74
0
0
LTYPE
5
3D
330
5
100
AcDbSymbolTableRecord
100
AcDbLinetypeTableRecord
2
DIVIDEX2
70
0
3
Divide (2x) ________  .  .  ________  .  .  _
72
65
73
6
40
63.5
49
25.4
74
0
49
-12.7
74
0
49
0
74
0
49
-12.7
74
0
49
0
74
0
49
-12.7
74
0
0
LTYPE
5
3E
330
5
100
AcDbSymbolTableRecord
100
AcDbLinetypeTableRecord
2
BORDER
70
0
3
Border __ __ . __ __ . __ __ . __ __ . __ __ .
72
65
73
6
40
44.45
49
12.7
74
0
49
-6.35
74
0
49
12.7
74
0
49
-6.35
74
0
49
0
74
0
49
-6.35
74
0
0
LTYPE
5
3F
330
5
100
AcDbSymbolTableRecord
100
AcDbLinetypeTableRecord
2
BORDER2
70
0
3
Border (.5x) __.__.__.__.__.__.__.__.__.__.__.
72
65
73
6
40
22.225
49
6.35
74
0
49
-3.175
74
0
49
6.35
74
0
49
-3.175
74
0
49
0
74
0
49
-3.175
74
0
0
LTYPE
5
40
330
5
100
AcDbSymbolTableRecord
100
AcDbLinetypeTableRecord
2
BORDERX2
70
0
3
Border (2x) ____  ____  .  ____  ____  .  ___
72
65
73
6
40
88.9
49
25.4
74
0
49
-12.7
74
0
49
25.4
74
0
49
-12.7
74
0
49
0
74
0
49
-12.7
74
0
0
LTYPE
5
41
330
5
100
AcDbSymbolTableRecord
100
AcDbLinetypeTableRecord
2
CENTER
70
0
3
Center ____ _ ____ _ ____ _ ____ _ ____ _ ____
72
65
73
4
40
50.8
49
31.75
74
0
49
-6.35
74
0
49
6.35
74
0
49
-6.35
74
0
0
LTYPE
5
42
330
5
100
AcDbSymbolTableRecord
100
AcDbLinetypeTableRecord
2
CENTER2
70
0
3
Center (.5x) ___ _ ___ _ ___ _ ___ _ ___ _ ___
72
65
73
4
40
28.575
49
19.05
74
0
49
-3.175
74
0
49
3.175
74
0
49
-3.175
74
0
0
LTYPE
5
43
330
5
100
AcDbSymbolTableRecord
100
AcDbLinetypeTableRecord
2
CENTERX2
70
0
3
Center (2x) ________  __  ________  __  _____
72
65
73
4
40
101.6
49
63.5
74
0
49
-12.7
74
0
49
12.7
74
0
49
-12.7
74
0
0
ENDTAB
0
TABLE
2
LAYER
5
2
330
0
100
AcDbSymbolTable
70
1
0
LAYER
5
10
330
2
100
AcDbSymbolTableRecord
100
AcDbLayerTableRecord
2
0
70
0
62
7
6
CONTINUOUS
370
0
390
F
0
LAYER
5
44
330
2
100
AcDbSymbolTableRecord
100
AcDbLayerTableRecord
2
Coastline
70
0
62
7
6
CONTINUOUS
370
0
390
F
0
LAYER
5
45
330
2
100
AcDbSymbolTableRecord
100
AcDbLayerTableRecord
2
Nature
70
0
62
98
420
21760
6
CONTINUOUS
370
0
390
F
0
LAYER
5
46
330
2
100
AcDbSymbolTableRecord
100
AcDbLayerTableRecord
2
Outline
70
0
62
131
420
11206655
6
CONTINUOUS
370
0
390
F
0
LAYER
5
47
330
2
100
AcDbSymbolTableRecord
100
AcDbLayerTableRecord
2
Transfers
70
0
62
7
6
DOT
370
50
390
F
0
ENDTAB
0
TABLE
2
STYLE
5
3
330
0
100
AcDbSymbolTable
70
3
0
STYLE
5
48
330
2
100
AcDbSymbolTableRecord
100
AcDbTextStyleTableRecord
2
standard
70
0
40
0
41
1
50
0
71
0
42
1
3
standard
4

0
ENDTAB
0
TABLE
2
VIEW
5
6
330
0
100
AcDbSymbolTable
70
0
0
ENDTAB
0
TABLE
2
UCS
5
7
330
0
100
AcDbSymbolTable
70
0
0
ENDTAB
0
TABLE
2
APPID
5
9
330
0
100
AcDbSymbolTable
70
1
0
APPID
5
12
330
9
100
AcDbSymbolTableRecord
100
AcDbRegAppTableRecord
2
ACAD
70
0
0
ENDTAB
0
TABLE
2
DIMSTYLE
5
A
330
0
100
AcDbSymbolTable
70
1
100
AcDbDimStyleTable
71
1
0
DIMSTYLE
105
49
330
A
100
AcDbSymbolTableRecord
100
AcDbDimStyleTableRecord
2
Standard
70
0
40
1
41
2.5
42
0.625
43
0.38
44
1.25
45
0
46
0
47
0
48
0
140
2.2
141
0.09
142
0
143
25.4
144
1
145
0
146
1
147
0.625
148
0
71
0
72
0
73
0
74
1
75
0
76
0
77
0
78
0
79
0
170
0
171
2
172
0
173
0
174
0
175
0
176
0
177
0
178
0
179
0
271
4
272
4
273
2
274
2
275
0
276
0
277
2
278
46
279
0
280
0
281
0
282
0
283
1
284
0
285
0
286
0
288
0
289
3
340
Standard
341

371
-2
372
-2
0
ENDTAB
0
TABLE
2
BLOCK_RECORD
5
1
330
0
100
AcDbSymbolTable
70
2
0
BLOCK_RECORD
5
1F
330
1
100
AcDbSymbolTableRecord
100
AcDbBlockTableRecord
2
*Model_Space
70
0
280
1
281
0
0
BLOCK_RECORD
5
1E
330
1
100
AcDbSymbolTableRecord
100
AcDbBlockTableRecord
2
*Paper_Space
70
0
280
1
281
0
0
BLOCK_RECORD
5
4A
330
1
100
AcDbSymbolTableRecord
100
AcDbBlockTableRecord
2
STATION
70
0
280
1
281
0
0
BLOCK_RECORD
5
4D
330
1
100
AcDbSymbolTableRecord
100
AcDbBlockTableRecord
2
STOP
70
0
280
1
281
0
0
BLOCK_RECORD
5
50
330
1
100
AcDbSymbolTableRecord
100
AcDbBlockTableRecord
2
TRANSFER2
70
0
280
1
281
0
0
ENDTAB
0
ENDSEC
0
SECTION
2
BLOCKS
0
BLOCK
5
20
330
1F
100
AcDbEntity
8
0
100
AcDbBlockBegin
2
*Model_Space
70
0
10
0
20
0
30
0
3
*Model_Space
1

0
ENDBLK
5
21
330
1F
100
AcDbEntity
8
0
100
AcDbBlockEnd
0
BLOCK
5
1C
330
1B
100
AcDbEntity
8
0
100
AcDbBlockBegin
2
*Paper_Space
70
0
10
0
20
0
30
0
3
*Paper_Space
1

0
ENDBLK
5
1D
330
1F
100
AcDbEntity
8
0
100
AcDbBlockEnd
0
BLOCK
5
4B
330
4A
100
AcDbEntity
8
0
100
AcDbBlockBegin
2
STATION
70
0
10
0
20
0
3
STATION
1

0
CIRCLE
5
53
100
AcDbEntity
8
0
6
ByLayer
62
256
370
-1
100
AcDbCircle
10
0
20
0
40
1.1
0
ENDBLK
5
4C
330
4A
100
AcDbEntity
8
0
100
AcDbBlockEnd
0
BLOCK
5
4E
330
4D
100
AcDbEntity
8
0
100
AcDbBlockBegin
2
STOP
70
0
10
0
20
0
3
STOP
1

0
LINE
5
54
100
AcDbEntity
8
0
6
ByLayer
62
256
370
-1
100
AcDbLine
10
-0.5
20
0
11
-0.5
21
1.1
0
LINE
5
55
100
AcDbEntity
8
0
6
ByLayer
62
256
370
-1
100
AcDbLine
10
0.5
20
0
11
0.5
21
1.1
0
LINE
5
56
100
AcDbEntity
8
0
6
ByLayer
62
256
370
-1
100
AcDbLine
10
-0.5
20
0
11
-0.5
21
-1.1
0
LINE
5
57
100
AcDbEntity
8
0
6
ByLayer
62
256
370
-1
100
AcDbLine
10
0.5
20
0
11
0.5
21
-1.1
0
LINE
5
58
100
AcDbEntity
8
0
6
ByLayer
62
256
370
-1
100
AcDbLine
10
-0.5
20
1.1
11
0.5
21
1.1
0
LINE
5
59
100
AcDbEntity
8
0
6
ByLayer
62
256
370
-1
100
AcDbLine
10
0.5
20
-1.1
11
-0.5
21
-1.1
0
ENDBLK
5
4F
330
4D
100
AcDbEntity
8
0
100
AcDbBlockEnd
0
BLOCK
5
51
330
50
100
AcDbEntity
8
0
100
AcDbBlockBegin
2
TRANSFER2
70
0
10
0
20
0
3
TRANSFER2
1

0
LINE
5
5A
100
AcDbEntity
8
0
6
DOT
62
256
370
50
100
AcDbLine
10
-1.1
20
0
11
3.1
21
0
0
ENDBLK
5
52
330
50
100
AcDbEntity
8
0
100
AcDbBlockEnd
0
ENDSEC
0
SECTION
2
ENTITIES
0
LINE
5
5B
100
AcDbEntity
8
0
6
DASHED
62
9
370
200
100
AcDbLine
10
166
20
128
11
152
21
128
0
ARC
5
5C
100
AcDbEntity
8
0
6
ByLayer
62
40
420
16755200
370
200
100
AcDbCircle
10
166
20
76
40
4
100
AcDbArc
50
180
51
270
0
ARC
5
5D
100
AcDbEntity
8
0
6
ByLayer
62
56
420
8421376
370
200
100
AcDbCircle
10
44
20
29.8578643763
40
4
100
AcDbArc
50
135
51
180
0
ARC
5
5E
100
AcDbEntity
8
0
6
ByLayer
62
2
370
200
100
AcDbCircle
10
44
20
29.8578643763
40
6
100
AcDbArc
50
135
51
180
0
LINE
5
5F
100
AcDbEntity
8
0
6
ByLayer
62
56
420
8421376
370
200
100
AcDbLine
10
40
20
-14
11
40
21
29.8579
0
LINE
5
60
100
AcDbEntity
8
0
6
ByLayer
62
2
370
200
100
AcDbLine
10
38
20
-14
11
38
21
29.8579
0
LINE
5
61
100
AcDbEntity
8
0
6
ByLayer
62
1
370
200
100
AcDbLine
10
58.4876498455
20
43.3357266455
11
26.9949493662
21
74.8284271247
0
LINE
5
62
100
AcDbEntity
8
0
6
ByLayer
62
5
370
200
100
AcDbLine
10
-24
20
50
11
68.3431457505
21
50
0
LINE
5
63
100
AcDbEntity
8
0
6
ByLayer
62
3
370
200
100
AcDbLine
10
68.3431457505
20
48
11
-24
21
48
0
INSERT
5
64
100
AcDbEntity
8
0
6
ByLayer
62
256
370
-1
100
AcDbBlockReference
2
STATION
10
69.2964645563
20
69.2964645563
30
0
41
1
42
1
43
0
50
315
70
1
71
1
44
1
45
1
0
INSERT
5
65
100
AcDbEntity
8
0
6
ByLayer
62
256
370
-1
100
AcDbBlockReference
2
STATION
10
59.3969696197
20
59.3969696197
30
0
41
1
42
1
43
0
50
315
70
1
71
1
44
1
45
1
0
INSERT
5
66
100
AcDbEntity
8
0
6
ByLayer
62
256
370
-1
100
AcDbBlockReference
2
STATION
10
49.4974746831
20
49.4974746831
30
0
41
1
42
1
43
0
50
315
70
1
71
1
44
1
45
1
0
INSERT
5
67
100
AcDbEntity
8
0
6
ByLayer
62
256
370
-1
100
AcDbBlockReference
2
STATION
10
39.5979797464
20
39.5979797464
30
0
41
1
42
1
43
0
50
315
70
1
71
1
44
1
45
1
0
INSERT
5
68
100
AcDbEntity
8
0
6
ByLayer
62
256
370
-1
100
AcDbBlockReference
2
STATION
10
29.6984848098
20
29.6984848098
30
0
41
1
42
1
43
0
50
315
70
1
71
1
44
1
45
1
0
INSERT
5
69
100
AcDbEntity
8
0
6
ByLayer
62
256
370
-1
100
AcDbBlockReference
2
STATION
10
19.7989898732
20
19.7989898732
30
0
41
1
42
1
43
0
50
315
70
1
71
1
44
1
45
1
0
INSERT
5
6A
100
AcDbEntity
8
0
6
ByLayer
62
256
370
-1
100
AcDbBlockReference
2
STATION
10
9.89949493661
20
9.89949493661
30
0
41
1
42
1
43
0
50
315
70
1
71
1
44
1
45
1
0
INSERT
5
6B
100
AcDbEntity
8
0
6
ByLayer
62
256
370
-1
100
AcDbBlockReference
2
STATION
10
70.7106781187
20
67.8822509939
30
0
41
1
42
1
43
0
50
315
70
1
71
1
44
1
45
1
0
INSERT
5
6C
100
AcDbEntity
8
0
6
ByLayer
62
256
370
-1
100
AcDbBlockReference
2
STATION
10
72.124891681
20
66.4680374315
30
0
41
1
42
1
43
0
50
315
70
1
71
1
44
1
45
1
0
INSERT
5
6D
100
AcDbEntity
8
0
6
ByLayer
62
256
370
-1
100
AcDbBlockReference
2
STATION
10
73.5391052434
20
65.0538238692
30
0
41
1
42
1
43
0
50
315
70
1
71
1
44
1
45
1
0
INSERT
5
6E
100
AcDbEntity
8
0
6
ByLayer
62
256
370
-1
100
AcDbBlockReference
2
STATION
10
74.9533188058
20
63.6396103068
30
0
41
1
42
1
43
0
50
315
70
1
71
1
44
1
45
1
0
INSERT
5
6F
100
AcDbEntity
8
0
6
ByLayer
62
256
370
-1
100
AcDbBlockReference
2
STATION
10
60.811183182
20
57.9827560573
30
0
41
1
42
1
43
0
50
315
70
1
71
1
44
1
45
1
0
INSERT
5
70
100
AcDbEntity
8
0
6
ByLayer
62
256
370
-1
100
AcDbBlockReference
2
STATION
10
62.2253967444
20
56.5685424949
30
0
41
1
42
1
43
0
50
315
70
1
71
1
44
1
45
1
0
INSERT
5
71
100
AcDbEntity
8
0
6
ByLayer
62
256
370
-1
100
AcDbBlockReference
2
STATION
10
63.6396103068
20
55.1543289326
30
0
41
1
42
1
43
0
50
315
70
1
71
1
44
1
45
1
0
INSERT
5
72
100
AcDbEntity
8
0
6
ByLayer
62
256
370
-1
100
AcDbBlockReference
2
STATION
10
65.0538238692
20
53.7401153702
30
0
41
1
42
1
43
0
50
315
70
1
71
1
44
1
45
1
0
INSERT
5
73
100
AcDbEntity
8
0
6
ByLayer
62
256
370
-1
100
AcDbBlockReference
2
STATION
10
50.9116882454
20
48.0832611207
30
0
41
1
42
1
43
0
50
315
70
1
71
1
44
1
45
1
0
INSERT
5
74
100
AcDbEntity
8
0
6
ByLayer
62
256
370
-1
100
AcDbBlockReference
2
STATION
10
52.3259018078
20
46.6690475583
30
0
41
1
42
1
43
0
50
315
70
1
71
1
44
1
45
1
0
INSERT
5
75
100
AcDbEntity
8
0
6
ByLayer
62
256
370
-1
100
AcDbBlockReference
2
STATION
10
53.7401153702
20
45.2548339959
30
0
41
1
42
1
43
0
50
315
70
1
71
1
44
1
45
1
0
INSERT
5
76
100
AcDbEntity
8
0
6
ByLayer
62
256
370
-1
100
AcDbBlockReference
2
STATION
10
55.1543289326
20
43.8406204336
30
0
41
1
42
1
43
0
50
315
70
1
71
1
44
1
45
1
0
INSERT
5
77
100
AcDbEntity
8
0
6
ByLayer
62
256
370
-1
100
AcDbBlockReference
2
STATION
10
41.0121933088
20
38.1837661841
30
0
41
1
42
1
43
0
50
315
70
1
71
1
44
1
45
1
0
INSERT
5
78
100
AcDbEntity
8
0
6
ByLayer
62
256
370
-1
100
AcDbBlockReference
2
STATION
10
42.4264068712
20
36.7695526217
30
0
41
1
42
1
43
0
50
315
70
1
71
1
44
1
45
1
0
INSERT
5
79
100
AcDbEntity
8
0
6
ByLayer
62
256
370
-1
100
AcDbBlockReference
2
STATION
10
43.8406204336
20
35.3553390593
30
0
41
1
42
1
43
0
50
315
70
1
71
1
44
1
45
1
0
INSERT
5
7A
100
AcDbEntity
8
0
6
ByLayer
62
256
370
-1
100
AcDbBlockReference
2
STATION
10
45.2548339959
20
33.941125497
30
0
41
1
42
1
43
0
50
315
70
1
71
1
44
1
45
1
0
INSERT
5
7B
100
AcDbEntity
8
0
6
ByLayer
62
256
370
-1
100
AcDbBlockReference
2
STATION
10
31.1126983722
20
28.2842712475
30
0
41
1
42
1
43
0
50
315
70
1
71
1
44
1
45
1
0
LINE
5
7C
100
AcDbEntity
8
0
6
ByLayer
62
211
420
16755455
370
200
100
AcDbLine
10
37.0121933088
20
29.6984848098
11
39.3553390593
21
29.6984848098
0
ARC
5
7D
100
AcDbEntity
8
0
6
ByLayer
62
211
420
16755455
370
200
100
AcDbCircle
10
39.3553390593
20
33.6984848098
40
4
100
AcDbArc
50
270
51
315
0
ARC
5
7E
100
AcDbEntity
8
0
6
ByLayer
62
211
420
16755455
370
200
100
AcDbCircle
10
37.0121933088
20
25.6984848098
40
4
100
AcDbArc
50
90
51
135
0
INSERT
5
7F
100
AcDbEntity
8
0
6
ByLayer
62
256
370
-1
100
AcDbBlockReference
2
STATION
10
32.5269119346
20
26.8700576851
30
0
41
1
42
1
43
0
50
315
70
1
71
1
44
1
45
1
0
INSERT
5
80
100
AcDbEntity
8
0
6
ByLayer
62
256
370
-1
100
AcDbBlockReference
2
STATION
10
21.2132034356
20
18.3847763109
30
0
41
1
42
1
43
0
50
315
70
1
71
1
44
1
45
1
0
INSERT
5
81
100
AcDbEntity
8
0
6
ByLayer
62
256
370
-1
100
AcDbBlockReference
2
STATION
10
22.627416998
20
16.9705627485
30
0
41
1
42
1
43
0
50
315
70
1
71
1
44
1
45
1
0
INSERT
5
82
100
AcDbEntity
8
0
6
ByLayer
62
256
370
-1
100
AcDbBlockReference
2
STATION
10
11.313708499
20
8.48528137424
30
0
41
1
42
1
43
0
50
315
70
1
71
1
44
1
45
1
0
INSERT
5
83
100
AcDbEntity
8
0
6
ByLayer
62
256
370
-1
100
AcDbBlockReference
2
STATION
10
1.41421356237
20
-1.41421356237
30
0
41
1
42
1
43
0
50
315
70
1
71
1
44
1
45
1
0
INSERT
5
84
100
AcDbEntity
8
0
6
ByLayer
62
256
370
-1
100
AcDbBlockReference
2
STATION
10
-8.48528137424
20
-11.313708499
30
0
41
1
42
1
43
0
50
315
70
1
71
1
44
1
45
1
0
INSERT
5
85
100
AcDbEntity
8
0
6
ByLayer
62
256
370
-1
100
AcDbBlockReference
2
STATION
10
-18.3847763109
20
-21.2132034356
30
0
41
1
42
1
43
0
50
315
70
1
71
1
44
1
45
1
0
INSERT
5
86
100
AcDbEntity
8
0
6
ByLayer
62
256
370
-1
100
AcDbBlockReference
2
STATION
10
-28.2842712475
20
-31.1126983722
30
0
41
1
42
1
43
0
50
315
70
1
71
1
44
1
45
1
0
INSERT
5
87
100
AcDbEntity
8
0
6
ByLayer
62
256
370
-1
100
AcDbBlockReference
2
STOP
10
22.2738636074
20
22.2738636074
30
0
41
1
42
1
43
0
50
45
70
1
71
1
44
1
45
1
0
INSERT
5
88
100
AcDbEntity
8
0
6
ByLayer
62
256
370
-1
100
AcDbBlockReference
2
STOP
10
24.7487373415
20
24.7487373415
30
0
41
1
42
1
43
0
50
45
70
1
71
1
44
1
45
1
0
INSERT
5
89
100
AcDbEntity
8
0
6
ByLayer
62
256
370
-1
100
AcDbBlockReference
2
STOP
10
27.2236110757
20
27.2236110757
30
0
41
1
42
1
43
0
50
45
70
1
71
1
44
1
45
1
0
INSERT
5
8A
100
AcDbEntity
8
0
6
ByLayer
62
256
370
-1
100
AcDbBlockReference
2
STOP
10
13.1993289392
20
13.1993289392
30
0
41
1
42
1
43
0
50
45
70
1
71
1
44
1
45
1
0
INSERT
5
8B
100
AcDbEntity
8
0
6
ByLayer
62
256
370
-1
100
AcDbBlockReference
2
STOP
10
16.4991558707
20
16.4991558707
30
0
41
1
42
1
43
0
50
45
70
1
71
1
44
1
45
1
0
INSERT
5
8C
100
AcDbEntity
8
0
6
ByLayer
62
256
370
-1
100
AcDbBlockReference
2
STOP
10
32.9983188124
20
32.9983188124
30
0
41
1
42
1
43
0
50
45
70
1
71
1
44
1
45
1
0
INSERT
5
8D
100
AcDbEntity
8
0
6
ByLayer
62
256
370
-1
100
AcDbBlockReference
2
STOP
10
36.2981457439
20
36.2981457439
30
0
41
1
42
1
43
0
50
45
70
1
71
1
44
1
45
1
0
INSERT
5
8E
100
AcDbEntity
8
0
6
ByLayer
62
256
370
-1
100
AcDbBlockReference
2
STOP
10
42.897813749
20
42.897813749
30
0
41
1
42
1
43
0
50
45
70
1
71
1
44
1
45
1
0
INSERT
5
8F
100
AcDbEntity
8
0
6
ByLayer
62
256
370
-1
100
AcDbBlockReference
2
STOP
10
46.1976406805
20
46.1976406805
30
0
41
1
42
1
43
0
50
45
70
1
71
1
44
1
45
1
0
INSERT
5
90
100
AcDbEntity
8
0
6
ByLayer
62
256
370
-1
100
AcDbBlockReference
2
STOP
10
54.800775542
20
54.800775542
30
0
41
1
42
1
43
0
50
45
70
1
71
1
44
1
45
1
0
INSERT
5
91
100
AcDbEntity
8
0
6
ByLayer
62
256
370
-1
100
AcDbBlockReference
2
STOP
10
64.7002704786
20
64.7002704786
30
0
41
1
42
1
43
0
50
45
70
1
71
1
44
1
45
1
0
INSERT
5
92
100
AcDbEntity
8
0
6
ByLayer
62
256
370
-1
100
AcDbBlockReference
2
STOP
10
74.5997654152
20
74.5997654152
30
0
41
1
42
1
43
0
50
45
70
1
71
1
44
1
45
1
0
TEXT
5
93
100
AcDbEntity
8
0
6
ByLayer
62
256
370
-1
100
AcDbText
10
68
20
72
30
0
40
2.2
1
Federal Bank
50
0
41
1
51
0
7
standard
71
0
72
2
11
68
21
72
31
0
210
0
220
0
230
1
100
AcDbText
73
2
0
TEXT
5
94
100
AcDbEntity
8
0
6
ByLayer
62
256
370
-1
100
AcDbText
10
28
20
32
30
0
40
2.2
1
Mid-market
50
0
41
1
51
0
7
standard
71
0
72
2
11
28
21
32
31
0
210
0
220
0
230
1
100
AcDbText
73
2
0
TEXT
5
95
100
AcDbEntity
8
0
6
ByLayer
62
256
370
-1
100
AcDbText
10
-30
20
-30
30
0
40
2.2
1
Stonestown
50
0
41
1
51
0
7
standard
71
0
72
2
11
-30
21
-30
31
0
210
0
220
0
230
1
100
AcDbText
73
2
0
TEXT
5
96
100
AcDbEntity
8
0
6
ByLayer
62
256
370
-1
100
AcDbText
10
46
20
32
30
0
40
2.2
1
Civic Center
50
0
41
1
51
0
7
standard
71
0
11
46
21
32
31
0
210
0
220
0
230
1
100
AcDbText
73
2
0
LINE
5
97
100
AcDbEntity
8
Transfers
6
ByLayer
62
256
370
-1
100
AcDbLine
10
69.2964645563
20
69.2964645563
11
74.9533188058
21
63.6396103068
0
LINE
5
98
100
AcDbEntity
8
Transfers
6
ByLayer
62
256
370
-1
100
AcDbLine
10
59.3969696197
20
59.3969696197
11
65.0538238692
21
53.7401153702
0
LINE
5
99
100
AcDbEntity
8
Transfers
6
ByLayer
62
256
370
-1
100
AcDbLine
10
49.4974746831
20
49.4974746831
11
55.1543289326
21
43.8406204336
0
LINE
5
9A
100
AcDbEntity
8
Transfers
6
ByLayer
62
256
370
-1
100
AcDbLine
10
39.5979797464
20
39.5979797464
11
45.2548339959
21
33.941125497
0
LINE
5
9B
100
AcDbEntity
8
Transfers
6
ByLayer
62
256
370
-1
100
AcDbLine
10
29.6984848098
20
29.6984848098
11
32.5269119346
21
26.8700576851
0
LINE
5
9C
100
AcDbEntity
8
0
6
ByLayer
62
256
370
-1
100
AcDbLine
10
19.7989898732
20
19.7989898732
11
22.627416998
21
16.9705627485
0
LINE
5
9D
100
AcDbEntity
8
Transfers
6
ByLayer
62
256
370
-1
100
AcDbLine
10
9.89949493661
20
9.89949493661
11
11.313708499
21
8.48528137424
0
ARC
5
9E
100
AcDbEntity
8
0
6
ByLayer
62
6
370
200
100
AcDbCircle
10
-30
20
-38.4852813742
40
4
100
AcDbArc
50
135
51
180
0
INSERT
5
9F
100
AcDbEntity
8
0
6
ByLayer
62
256
370
-1
100
AcDbBlockReference
2
STATION
10
-34
20
-46
30
0
41
1
42
1
43
0
50
0
70
1
71
1
44
1
45
1
0
LINE
5
A0
100
AcDbEntity
8
0
6
ByLayer
62
6
370
200
100
AcDbLine
10
-34
20
-46
11
-34
21
-38.4852813742
0
TEXT
5
A1
100
AcDbEntity
8
0
6
ByLayer
62
256
370
-1
100
AcDbText
10
-36
20
-46
30
0
40
2.2
1
Parkmerced
50
0
41
1
51
0
7
standard
71
0
72
2
11
-36
21
-46
31
0
210
0
220
0
230
1
100
AcDbText
73
2
0
TEXT
5
A2
100
AcDbEntity
8
0
6
ByLayer
62
256
370
-1
100
AcDbText
10
8
20
10
30
0
40
2.2
1
Castro
50
0
41
1
51
0
7
standard
71
0
72
2
11
8
21
10
31
0
210
0
220
0
230
1
100
AcDbText
73
2
0
TEXT
5
A3
100
AcDbEntity
8
0
6
ByLayer
62
256
370
-1
100
AcDbText
10
4
20
-2
30
0
40
2.2
1
Forest Hill
50
0
41
1
51
0
7
standard
71
0
11
4
21
-2
31
0
210
0
220
0
230
1
100
AcDbText
73
2
0
TEXT
5
A4
100
AcDbEntity
8
0
6
ByLayer
62
256
370
-1
100
AcDbText
10
-6
20
-12
30
0
40
2.2
1
West Portal
50
0
41
1
51
0
7
standard
71
0
11
-6
21
-12
31
0
210
0
220
0
230
1
100
AcDbText
73
2
0
TEXT
5
A5
100
AcDbEntity
8
0
6
ByLayer
62
256
370
-1
100
AcDbText
10
-20
20
-20
30
0
40
2.2
1
St Francis Circle
50
0
41
1
51
0
7
standard
71
0
72
2
11
-20
21
-20
31
0
210
0
220
0
230
1
100
AcDbText
73
2
0
LINE
5
A6
100
AcDbEntity
8
0
6
ByLayer
62
211
420
16755455
370
200
100
AcDbLine
10
19.1715728753
20
13.5147186257
11
34.1837661841
21
28.5269119346
0
ARC
5
A7
100
AcDbEntity
8
0
6
ByLayer
62
211
420
16755455
370
200
100
AcDbCircle
10
22
20
10.686291501
40
4
100
AcDbArc
50
135
51
180
0
LINE
5
A8
100
AcDbEntity
8
0
6
ByLayer
62
211
420
16755455
370
200
100
AcDbLine
10
30
20
6
11
22
21
6
0
LINE
5
A9
100
AcDbEntity
8
0
6
ByLayer
62
211
420
16755455
370
200
100
AcDbLine
10
18
20
10
11
18
21
10.686291501
0
ARC
5
AA
100
AcDbEntity
8
0
6
ByLayer
62
211
420
16755455
370
200
100
AcDbCircle
10
22
20
10
40
4
100
AcDbArc
50
180
51
270
0
TEXT
5
AB
100
AcDbEntity
8
0
6
ByLayer
62
256
370
-1
100
AcDbText
10
42
20
10
30
0
40
2.2
1
West SoMa
50
0
41
1
51
0
7
standard
71
0
11
42
21
10
31
0
210
0
220
0
230
1
100
AcDbText
73
2
0
LINE
5
AC
100
AcDbEntity
8
Transfers
6
ByLayer
62
256
370
-1
100
AcDbLine
10
38
20
8
11
40
21
8
0
LINE
5
AD
100
AcDbEntity
8
Transfers
6
ByLayer
62
256
370
-1
100
AcDbLine
10
40
20
8
11
42
21
6
0
LINE
5
AE
100
AcDbEntity
8
0
6
ByLayer
62
211
420
16755455
370
200
100
AcDbLine
10
30
20
6
11
46.3431457505
21
6
0
ARC
5
AF
100
AcDbEntity
8
0
6
ByLayer
62
211
420
16755455
370
200
100
AcDbCircle
10
46.3431457505
20
2
40
4
100
AcDbArc
50
45
51
90
0
LINE
5
B0
100
AcDbEntity
8
0
6
ByLayer
62
211
420
16755455
370
200
100
AcDbLine
10
52.8284271247
20
1.17157287525
11
49.1715728753
21
4.82842712475
0
ARC
5
B1
100
AcDbEntity
8
0
6
ByLayer
62
211
420
16755455
370
200
100
AcDbCircle
10
55.6568542495
20
4
40
4
100
AcDbArc
50
225
51
270
0
LINE
5
B2
100
AcDbEntity
8
0
6
ByLayer
62
211
420
16755455
370
200
100
AcDbLine
10
42.1837661841
20
30.8700576851
11
78.7279220614
21
67.4142135624
0
ARC
5
B3
100
AcDbEntity
8
0
6
ByLayer
62
211
420
16755455
370
200
100
AcDbCircle
10
80.1421356237
20
66
40
2
100
AcDbArc
50
90
51
135
0
LINE
5
B4
100
AcDbEntity
8
0
6
ByLayer
62
56
420
8421376
370
200
100
AcDbLine
10
126
20
70
11
80.1421356237
21
70
0
LINE
5
B5
100
AcDbEntity
8
0
6
ByLayer
62
56
420
8421376
370
200
100
AcDbLine
10
41.1715728753
20
32.686291501
11
77.313708499
21
68.8284271247
0
ARC
5
B6
100
AcDbEntity
8
0
6
ByLayer
62
56
420
8421376
370
200
100
AcDbCircle
10
80.1421356237
20
66
40
4
100
AcDbArc
50
90
51
135
0
LINE
5
B7
100
AcDbEntity
8
0
6
ByLayer
62
2
370
200
100
AcDbLine
10
126
20
72
11
80.1421356237
21
72
0
LINE
5
B8
100
AcDbEntity
8
0
6
ByLayer
62
2
370
200
100
AcDbLine
10
39.7573593129
20
34.1005050634
11
75.8994949366
21
70.2426406871
0
ARC
5
B9
100
AcDbEntity
8
0
6
ByLayer
62
2
370
200
100
AcDbCircle
10
80.1421356237
20
66
40
6
100
AcDbArc
50
90
51
135
0
LINE
5
BA
100
AcDbEntity
8
0
6
ByLayer
62
6
370
200
100
AcDbLine
10
-32.8284271247
20
-35.6568542495
11
70.7106781187
21
67.8822509939
0
LINE
5
BB
100
AcDbEntity
8
0
6
DASHED
62
136
420
32896
370
200
100
AcDbLine
10
9.89949493661
20
9.89949493661
11
76
21
76
0
ARC
5
BC
100
AcDbEntity
8
0
6
DASHED
62
136
420
32896
370
200
100
AcDbCircle
10
74.5857864376
20
77.4142135624
40
2
100
AcDbArc
50
315
51
45
0
LINE
5
BD
100
AcDbEntity
8
0
6
ByLayer
62
211
420
16755455
370
200
100
AcDbLine
10
83.1715728753
20
68
11
80.1421
21
68
0
LINE
5
BE
100
AcDbEntity
8
0
6
ByLayer
62
253
420
10526884
370
200
100
AcDbLine
10
88
20
68.4852813742
11
88
21
68
0
ARC
5
BF
100
AcDbEntity
8
0
6
ByLayer
62
211
420
16755455
370
200
100
AcDbCircle
10
83.1715728753
20
66
40
2
100
AcDbArc
50
45
51
90
0
LINE
5
C0
100
AcDbEntity
8
Transfers
6
ByLayer
62
256
370
-1
100
AcDbLine
10
74.4506861281
20
80.3777409966
11
75.8648996905
21
81.791954559
0
ARC
5
C1
100
AcDbEntity
8
0
6
DASHED
62
253
420
10526884
370
200
100
AcDbCircle
10
84
20
68
40
4
100
AcDbArc
50
0
51
45
0
ARC
5
C2
100
AcDbEntity
8
0
6
DASHED
62
253
420
10526884
370
200
100
AcDbCircle
10
92
20
68.4852813742
40
4
100
AcDbArc
50
180
51
225
0
TEXT
5
C3
100
AcDbEntity
8
0
6
ByLayer
62
256
370
-1
100
AcDbText
10
78
20
84
30
0
40
2.2
1
Ferry Building
50
0
41
1
51
0
7
standard
71
0
11
78
21
84
31
0
210
0
220
0
230
1
100
AcDbText
73
2
0
TEXT
5
C4
100
AcDbEntity
8
0
6
ByLayer
62
256
370
-1
100
AcDbText
10
102
20
56
30
0
40
2.2
1
Rincon Park
50
0
41
1
51
0
7
standard
71
0
11
102
21
56
31
0
210
0
220
0
230
1
100
AcDbText
73
2
0
LINE
5
C5
100
AcDbEntity
8
Transfers
6
ByLayer
62
256
370
-1
100
AcDbLine
10
100.516
20
51.4843
11
101.93
21
52.8985
0
LINE
5
C6
100
AcDbEntity
8
0
6
DASHED
62
253
420
10526884
370
200
100
AcDbLine
10
89.1715728753
20
65.6568542495
11
101.902536536
21
52.9258905886
0
LINE
5
C7
100
AcDbEntity
8
0
6
ByLayer
62
211
420
16755455
370
200
100
AcDbLine
10
106.828427125
20
45.1715728753
11
84.5857864376
21
67.4142135624
0
ARC
5
C8
100
AcDbEntity
8
0
6
ByLayer
62
211
420
16755455
370
200
100
AcDbCircle
10
104
20
42.3431457505
40
4
100
AcDbArc
50
360
51
45
0
LINE
5
C9
100
AcDbEntity
8
0
6
ByLayer
62
211
420
16755455
370
200
100
AcDbLine
10
104
20
0
11
55.6568542495
21
0
0
LINE
5
CA
100
AcDbEntity
8
0
6
ByLayer
62
211
420
16755455
370
200
100
AcDbLine
10
108
20
4
11
108
21
42.3431457505
0
ARC
5
CB
100
AcDbEntity
8
0
6
ByLayer
62
211
420
16755455
370
200
100
AcDbCircle
10
104
20
4
40
4
100
AcDbArc
50
270
51
0
0
INSERT
5
CC
100
AcDbEntity
8
0
6
ByLayer
62
256
370
-1
100
AcDbBlockReference
2
STATION
10
108
20
23.1715728753
30
0
41
1
42
1
43
0
50
0
70
1
71
1
44
1
45
1
0
INSERT
5
CD
100
AcDbEntity
8
0
6
ByLayer
62
256
370
-1
100
AcDbBlockReference
2
STATION
10
94
20
0
30
0
41
1
42
1
43
0
50
0
70
1
71
1
44
1
45
1
0
TEXT
5
CE
100
AcDbEntity
8
0
6
ByLayer
62
256
370
-1
100
AcDbText
10
110
20
23.1715728753
30
0
40
2.2
1
Bayside
50
0
41
1
51
0
7
standard
71
0
11
110
21
23.1715728753
31
0
210
0
220
0
230
1
100
AcDbText
73
2
0
LINE
5
CF
100
AcDbEntity
8
Transfers
6
ByLayer
62
256
370
-1
100
AcDbLine
10
92
20
-2
11
94
21
0
0
ARC
5
D0
100
AcDbEntity
8
0
6
ByLayer
62
1
370
200
100
AcDbCircle
10
88
20
8.16652224145
40
4
100
AcDbArc
50
360
51
45
0
LINE
5
D1
100
AcDbEntity
8
0
6
ByLayer
62
1
370
200
100
AcDbLine
10
90.8284271247
20
10.9949493662
11
58.4876498455
21
43.3357266455
0
INSERT
5
D2
100
AcDbEntity
8
0
6
ByLayer
62
256
370
-1
100
AcDbBlockReference
2
STATION
10
74.6580384851
20
27.1653380058
30
0
41
1
42
1
43
0
50
0
70
1
71
1
44
1
45
1
0
TEXT
5
D3
100
AcDbEntity
8
0
6
ByLayer
62
256
370
-1
100
AcDbText
10
74
20
24
30
0
40
2.2
1
Yerba Buena
50
0
41
1
51
0
7
standard
71
0
72
2
11
74
21
24
31
0
210
0
220
0
230
1
100
AcDbText
73
2
0
INSERT
5
D4
100
AcDbEntity
8
0
6
ByLayer
62
256
370
-1
100
AcDbBlockReference
2
STATION
10
46
20
50
30
0
41
1
42
1
43
0
50
0
70
1
71
1
44
1
45
1
0
INSERT
5
D5
100
AcDbEntity
8
0
6
ByLayer
62
256
370
-1
100
AcDbBlockReference
2
STATION
10
44
20
48
30
0
41
1
42
1
43
0
50
0
70
1
71
1
44
1
45
1
0
LINE
5
D6
100
AcDbEntity
8
Transfers
6
ByLayer
62
256
370
-1
100
AcDbLine
10
46
20
50
11
44
21
48
0
INSERT
5
D7
100
AcDbEntity
8
0
6
ByLayer
62
256
370
-1
100
AcDbBlockReference
2
STATION
10
48.9116882455
20
52.9116882455
30
0
41
1
42
1
43
0
50
0
70
1
71
1
44
1
45
1
0
LINE
5
D8
100
AcDbEntity
8
Transfers
6
ByLayer
62
256
370
-1
100
AcDbLine
10
46
20
50
11
48.9116882455
21
52.9116882455
0
LINE
5
D9
100
AcDbEntity
8
Transfers
6
ByLayer
62
256
370
-1
100
AcDbLine
10
49.4974746831
20
49.4974746831
11
47.2984848099
21
51.2984848099
0
TEXT
5
DA
100
AcDbEntity
8
0
6
ByLayer
62
256
370
-1
100
AcDbText
10
44
20
54
30
0
40
2.2
1
Union Square
50
0
41
1
51
0
7
standard
71
0
72
2
11
44
21
54
31
0
210
0
220
0
230
1
100
AcDbText
73
2
0
ARC
5
DB
100
AcDbEntity
8
0
6
ByLayer
62
3
370
200
100
AcDbCircle
10
92
20
20.3431457505
40
4
100
AcDbArc
50
360
51
45
0
LINE
5
DC
100
AcDbEntity
8
0
6
ByLayer
62
3
370
200
100
AcDbLine
10
94.8284271247
20
23.1715728753
11
71.1715728753
21
46.8284271247
0
ARC
5
DD
100
AcDbEntity
8
0
6
ByLayer
62
3
370
200
100
AcDbCircle
10
68.3431457505
20
44
40
4
100
AcDbArc
50
45
51
90
0
ARC
5
DE
100
AcDbEntity
8
0
6
ByLayer
62
5
370
200
100
AcDbCircle
10
92
20
20.3431457505
40
6
100
AcDbArc
50
2.54444374517e-14
51
45
0
LINE
5
DF
100
AcDbEntity
8
0
6
ByLayer
62
5
370
200
100
AcDbLine
10
72.5857864376
20
48.2426406871
11
96.2426406871
21
24.5857864376
0
ARC
5
E0
100
AcDbEntity
8
0
6
ByLayer
62
5
370
200
100
AcDbCircle
10
68.3431457505
20
44
40
6
100
AcDbArc
50
45
51
90
0
INSERT
5
E1
100
AcDbEntity
8
0
6
ByLayer
62
256
370
-1
100
AcDbBlockReference
2
STATION
10
83
20
35
30
0
41
1
42
1
43
0
50
0
70
1
71
1
44
1
45
1
0
INSERT
5
E2
100
AcDbEntity
8
0
6
ByLayer
62
256
370
-1
100
AcDbBlockReference
2
STATION
10
84.4142135624
20
36.4142135624
30
0
41
1
42
1
43
0
50
0
70
1
71
1
44
1
45
1
0
LINE
5
E3
100
AcDbEntity
8
Transfers
6
ByLayer
62
256
370
-1
100
AcDbLine
10
83
20
35
11
84.4142135624
21
36.4142135624
0
TEXT
5
E4
100
AcDbEntity
8
0
6
ByLayer
62
256
370
-1
100
AcDbText
10
84
20
40
30
0
40
2.2
1
East SoMa
50
0
41
1
51
0
7
standard
71
0
11
84
21
40
31
0
210
0
220
0
230
1
100
AcDbText
73
2
0
LINE
5
E5
100
AcDbEntity
8
0
6
ByLayer
62
5
370
200
100
AcDbLine
10
98
20
-6
11
98
21
20.3431457505
0
LINE
5
E6
100
AcDbEntity
8
0
6
ByLayer
62
3
370
200
100
AcDbLine
10
96
20
-6
11
96
21
20.3431457505
0
ARC
5
E7
100
AcDbEntity
8
0
6
ByLayer
62
5
370
200
100
AcDbCircle
10
102
20
-6
40
4
100
AcDbArc
50
180
51
270
0
ARC
5
E8
100
AcDbEntity
8
0
6
ByLayer
62
3
370
200
100
AcDbCircle
10
102
20
-6
40
6
100
AcDbArc
50
180
51
270
0
LINE
5
E9
100
AcDbEntity
8
0
6
ByLayer
62
1
370
200
100
AcDbLine
10
92
20
-16
11
92
21
8.16652224145
0
LINE
5
EA
100
AcDbEntity
8
0
6
ByLayer
62
1
370
200
100
AcDbLine
10
92
20
-16
11
92
21
-28
0
LINE
5
EB
100
AcDbEntity
8
0
6
ByLayer
62
1
370
200
100
AcDbLine
10
92
20
-28
11
92
21
-40
0
INSERT
5
EC
100
AcDbEntity
8
0
6
ByLayer
62
256
370
-1
100
AcDbBlockReference
2
STATION
10
92
20
-28
30
0
41
1
42
1
43
0
50
0
70
1
71
1
44
1
45
1
0
INSERT
5
ED
100
AcDbEntity
8
0
6
ByLayer
62
256
370
-1
100
AcDbBlockReference
2
STATION
10
92
20
-40
30
0
41
1
42
1
43
0
50
0
70
1
71
1
44
1
45
1
0
TEXT
5
EE
100
AcDbEntity
8
0
6
ByLayer
62
256
370
-1
100
AcDbText
10
94
20
-28
30
0
40
2.2
1
Mission Bay
50
0
41
1
51
0
7
standard
71
0
11
94
21
-28
31
0
210
0
220
0
230
1
100
AcDbText
73
2
0
TEXT
5
EF
100
AcDbEntity
8
0
6
ByLayer
62
256
370
-1
100
AcDbText
10
94
20
-40
30
0
40
2.2
1
Dogpatch
50
0
41
1
51
0
7
standard
71
0
11
94
21
-40
31
0
210
0
220
0
230
1
100
AcDbText
73
2
0
LINE
5
F0
100
AcDbEntity
8
0
6
ByLayer
62
1
370
200
100
AcDbLine
10
92
20
-52
11
92
21
-64
0
LINE
5
F1
100
AcDbEntity
8
0
6
ByLayer
62
1
370
200
100
AcDbLine
10
92
20
-64
11
92
21
-76
0
LINE
5
F2
100
AcDbEntity
8
0
6
ByLayer
62
1
370
200
100
AcDbLine
10
92
20
-76
11
92
21
-88
0
LINE
5
F3
100
AcDbEntity
8
0
6
ByLayer
62
1
370
200
100
AcDbLine
10
92
20
-88
11
92
21
-100
0
LINE
5
F4
100
AcDbEntity
8
0
6
ByLayer
62
1
370
200
100
AcDbLine
10
92
20
-100
11
92
21
-112
0
INSERT
5
F5
100
AcDbEntity
8
0
6
ByLayer
62
256
370
-1
100
AcDbBlockReference
2
STATION
10
92
20
-52
30
0
41
1
42
1
43
0
50
0
70
1
71
1
44
1
45
1
0
INSERT
5
F6
100
AcDbEntity
8
0
6
ByLayer
62
256
370
-1
100
AcDbBlockReference
2
STATION
10
92
20
-64
30
0
41
1
42
1
43
0
50
0
70
1
71
1
44
1
45
1
0
INSERT
5
F7
100
AcDbEntity
8
0
6
ByLayer
62
256
370
-1
100
AcDbBlockReference
2
STATION
10
92
20
-76
30
0
41
1
42
1
43
0
50
0
70
1
71
1
44
1
45
1
0
INSERT
5
F8
100
AcDbEntity
8
0
6
ByLayer
62
256
370
-1
100
AcDbBlockReference
2
STATION
10
92
20
-88
30
0
41
1
42
1
43
0
50
0
70
1
71
1
44
1
45
1
0
INSERT
5
F9
100
AcDbEntity
8
0
6
ByLayer
62
256
370
-1
100
AcDbBlockReference
2
STATION
10
92
20
-100
30
0
41
1
42
1
43
0
50
0
70
1
71
1
44
1
45
1
0
INSERT
5
FA
100
AcDbEntity
8
0
6
ByLayer
62
256
370
-1
100
AcDbBlockReference
2
STATION
10
92
20
-112
30
0
41
1
42
1
43
0
50
0
70
1
71
1
44
1
45
1
0
TEXT
5
FB
100
AcDbEntity
8
0
6
ByLayer
62
256
370
-1
100
AcDbText
10
94
20
-52
30
0
40
2.2
1
Islais Creek
50
0
41
1
51
0
7
standard
71
0
11
94
21
-52
31
0
210
0
220
0
230
1
100
AcDbText
73
2
0
TEXT
5
FC
100
AcDbEntity
8
0
6
ByLayer
62
256
370
-1
100
AcDbText
10
94
20
-64
30
0
40
2.2
1
Hunter's Point
50
0
41
1
51
0
7
standard
71
0
11
94
21
-64
31
0
210
0
220
0
230
1
100
AcDbText
73
2
0
LINE
5
FD
100
AcDbEntity
8
0
6
ByLayer
62
1
370
200
100
AcDbLine
10
92
20
-40
11
92
21
-52
0
TEXT
5
FE
100
AcDbEntity
8
0
6
ByLayer
62
256
370
-1
100
AcDbText
10
94
20
-76
30
0
40
2.2
1
Bayview
50
0
41
1
51
0
7
standard
71
0
11
94
21
-76
31
0
210
0
220
0
230
1
100
AcDbText
73
2
0
TEXT
5
FF
100
AcDbEntity
8
0
6
ByLayer
62
256
370
-1
100
AcDbText
10
94
20
-88
30
0
40
2.2
1
Bayshore
50
0
41
1
51
0
7
standard
71
0
11
94
21
-88
31
0
210
0
220
0
230
1
100
AcDbText
73
2
0
TEXT
5
100
100
AcDbEntity
8
0
6
ByLayer
62
256
370
-1
100
AcDbText
10
94
20
-100
30
0
40
2.2
1
San Bruno
50
0
41
1
51
0
7
standard
71
0
11
94
21
-100
31
0
210
0
220
0
230
1
100
AcDbText
73
2
0
TEXT
5
101
100
AcDbEntity
8
0
6
ByLayer
62
256
370
-1
100
AcDbText
10
94
20
-112
30
0
40
2.2
1
San Francisco Airport
50
0
41
1
51
0
7
standard
71
0
11
94
21
-112
31
0
210
0
220
0
230
1
100
AcDbText
73
2
0
TEXT
5
102
100
AcDbEntity
8
0
6
ByLayer
62
256
370
-1
100
AcDbText
10
67
20
53
30
0
40
2.2
1
Financial District
50
0
41
1
51
0
7
standard
71
0
11
67
21
53
31
0
210
0
220
0
230
1
100
AcDbText
73
2
0
LINE
5
103
100
AcDbEntity
8
Transfers
6
ByLayer
62
256
370
-1
100
AcDbLine
10
19.799
20
19.799
11
19.799
21
22.6274
0
LINE
5
104
100
AcDbEntity
8
Transfers
6
ByLayer
62
256
370
-1
100
AcDbLine
10
19.7989898732
20
19.7989898732
11
22.627416998
21
16.9705627485
0
LINE
5
105
100
AcDbEntity
8
0
6
ByLayer
62
56
420
8421376
370
200
100
AcDbLine
10
40
20
-20
11
40
21
-14
0
LINE
5
106
100
AcDbEntity
8
0
6
ByLayer
62
2
370
200
100
AcDbLine
10
38
20
-20
11
38
21
-14
0
TEXT
5
107
100
AcDbEntity
8
0
6
ByLayer
62
256
370
-1
100
AcDbText
10
42
20
-14
30
0
40
2.2
1
North Mission
50
0
41
1
51
0
7
standard
71
0
11
42
21
-14
31
0
210
0
220
0
230
1
100
AcDbText
73
2
0
INSERT
5
108
100
AcDbEntity
8
0
6
ByLayer
62
256
370
-1
100
AcDbBlockReference
2
STATION
10
40
20
-14
30
0
41
1
42
1
43
0
50
0
70
1
71
1
44
1
45
1
0
INSERT
5
109
100
AcDbEntity
8
0
6
ByLayer
62
256
370
-1
100
AcDbBlockReference
2
STATION
10
38
20
-14
30
0
41
1
42
1
43
0
50
0
70
1
71
1
44
1
45
1
0
INSERT
5
10A
100
AcDbEntity
8
0
6
ByLayer
62
256
370
-1
100
AcDbBlockReference
2
STATION
10
40
20
-26
30
0
41
1
42
1
43
0
50
0
70
1
71
1
44
1
45
1
0
INSERT
5
10B
100
AcDbEntity
8
0
6
ByLayer
62
256
370
-1
100
AcDbBlockReference
2
STATION
10
38
20
-26
30
0
41
1
42
1
43
0
50
0
70
1
71
1
44
1
45
1
0
INSERT
5
10C
100
AcDbEntity
8
0
6
ByLayer
62
256
370
-1
100
AcDbBlockReference
2
STATION
10
30
20
-20
30
0
41
1
42
1
43
0
50
0
70
1
71
1
44
1
45
1
0
INSERT
5
10D
100
AcDbEntity
8
0
6
ByLayer
62
256
370
-1
100
AcDbBlockReference
2
STATION
10
30
20
-32
30
0
41
1
42
1
43
0
50
0
70
1
71
1
44
1
45
1
0
TEXT
5
10E
100
AcDbEntity
8
0
6
ByLayer
62
256
370
-1
100
AcDbText
10
42
20
-26
30
0
40
2.2
1
South Mission
50
0
41
1
51
0
7
standard
71
0
11
42
21
-26
31
0
210
0
220
0
230
1
100
AcDbText
73
2
0
TEXT
5
10F
100
AcDbEntity
8
0
6
ByLayer
62
256
370
-1
100
AcDbText
10
28
20
-20
30
0
40
2.2
1
Dolores Park
50
0
41
1
51
0
7
standard
71
0
72
2
11
28
21
-20
31
0
210
0
220
0
230
1
100
AcDbText
73
2
0
TEXT
5
110
100
AcDbEntity
8
0
6
ByLayer
62
256
370
-1
100
AcDbText
10
28
20
-32
30
0
40
2.2
1
Noe Valley
50
0
41
1
51
0
7
standard
71
0
72
2
11
28
21
-32
31
0
210
0
220
0
230
1
100
AcDbText
73
2
0
INSERT
5
111
100
AcDbEntity
8
0
6
ByLayer
62
256
370
-1
100
AcDbBlockReference
2
STATION
10
30
20
-44
30
0
41
1
42
1
43
0
50
0
70
1
71
1
44
1
45
1
0
INSERT
5
112
100
AcDbEntity
8
0
6
ByLayer
62
256
370
-1
100
AcDbBlockReference
2
STATION
10
30
20
-56
30
0
41
1
42
1
43
0
50
0
70
1
71
1
44
1
45
1
0
INSERT
5
113
100
AcDbEntity
8
0
6
ByLayer
62
256
370
-1
100
AcDbBlockReference
2
STATION
10
30
20
-68
30
0
41
1
42
1
43
0
50
0
70
1
71
1
44
1
45
1
0
TEXT
5
114
100
AcDbEntity
8
0
6
ByLayer
62
256
370
-1
100
AcDbText
10
28
20
-44
30
0
40
2.2
1
South Noe Valley
50
0
41
1
51
0
7
standard
71
0
72
2
11
28
21
-44
31
0
210
0
220
0
230
1
100
AcDbText
73
2
0
TEXT
5
115
100
AcDbEntity
8
0
6
ByLayer
62
256
370
-1
100
AcDbText
10
36
20
-68
30
0
40
2.2
1
Balboa Park
50
0
41
1
51
0
7
standard
71
0
11
36
21
-68
31
0
210
0
220
0
230
1
100
AcDbText
73
2
0
LINE
5
116
100
AcDbEntity
8
0
6
ByLayer
62
2
370
200
100
AcDbLine
10
32
20
-44
11
32
21
-56
0
LINE
5
117
100
AcDbEntity
8
0
6
ByLayer
62
2
370
200
100
AcDbLine
10
32
20
-56
11
32
21
-68
0
LINE
5
118
100
AcDbEntity
8
0
6
ByLayer
62
56
420
8421376
370
200
100
AcDbLine
10
34
20
-44
11
34
21
-56
0
LINE
5
119
100
AcDbEntity
8
0
6
ByLayer
62
56
420
8421376
370
200
100
AcDbLine
10
34
20
-56
11
34
21
-68
0
LINE
5
11A
100
AcDbEntity
8
0
6
ByLayer
62
56
420
8421376
370
200
100
AcDbLine
10
34
20
-37.6568542495
11
34
21
-44
0
LINE
5
11B
100
AcDbEntity
8
0
6
ByLayer
62
2
370
200
100
AcDbLine
10
32
20
-37.6568542495
11
32
21
-44
0
LINE
5
11C
100
AcDbEntity
8
0
6
ByLayer
62
56
420
8421376
370
200
100
AcDbLine
10
40
20
-14
11
40
21
-26
0
ARC
5
11D
100
AcDbEntity
8
0
6
ByLayer
62
56
420
8421376
370
200
100
AcDbCircle
10
38
20
-37.6568542495
40
4
100
AcDbArc
50
135
51
180
0
LINE
5
11E
100
AcDbEntity
8
0
6
ByLayer
62
56
420
8421376
370
200
100
AcDbLine
10
40
20
-26
11
40
21
-27.5147186258
0
LINE
5
11F
100
AcDbEntity
8
0
6
ByLayer
62
56
420
8421376
370
200
100
AcDbLine
10
35.1715728753
20
-34.8284271247
11
38.2426406871
21
-31.7573593129
0
ARC
5
120
100
AcDbEntity
8
0
6
ByLayer
62
56
420
8421376
370
200
100
AcDbCircle
10
34
20
-27.5147186258
40
6
100
AcDbArc
50
315
51
0
0
LINE
5
121
100
AcDbEntity
8
0
6
ByLayer
62
2
370
200
100
AcDbLine
10
38
20
-14
11
38
21
-26
0
LINE
5
122
100
AcDbEntity
8
0
6
ByLayer
62
2
370
200
100
AcDbLine
10
38
20
-26
11
38
21
-27.5147186258
0
ARC
5
123
100
AcDbEntity
8
0
6
ByLayer
62
2
370
200
100
AcDbCircle
10
34
20
-27.5147186258
40
4
100
AcDbArc
50
315
51
0
0
LINE
5
124
100
AcDbEntity
8
0
6
ByLayer
62
2
370
200
100
AcDbLine
10
33.7573593129
20
-33.4142135624
11
36.8284271247
21
-30.3431457505
0
ARC
5
125
100
AcDbEntity
8
0
6
ByLayer
62
2
370
200
100
AcDbCircle
10
38
20
-37.6568542495
40
6
100
AcDbArc
50
135
51
180
0
INSERT
5
126
100
AcDbEntity
8
0
6
ByLayer
62
256
370
-1
100
AcDbBlockReference
2
STATION
10
32
20
-44
30
0
41
1
42
1
43
0
50
0
70
1
71
1
44
1
45
1
0
INSERT
5
127
100
AcDbEntity
8
0
6
ByLayer
62
256
370
-1
100
AcDbBlockReference
2
STATION
10
34
20
-44
30
0
41
1
42
1
43
0
50
0
70
1
71
1
44
1
45
1
0
INSERT
5
128
100
AcDbEntity
8
0
6
ByLayer
62
256
370
-1
100
AcDbBlockReference
2
STATION
10
32
20
-56
30
0
41
1
42
1
43
0
50
0
70
1
71
1
44
1
45
1
0
INSERT
5
129
100
AcDbEntity
8
0
6
ByLayer
62
256
370
-1
100
AcDbBlockReference
2
STATION
10
34
20
-56
30
0
41
1
42
1
43
0
50
0
70
1
71
1
44
1
45
1
0
INSERT
5
12A
100
AcDbEntity
8
0
6
ByLayer
62
256
370
-1
100
AcDbBlockReference
2
STATION
10
32
20
-68
30
0
41
1
42
1
43
0
50
0
70
1
71
1
44
1
45
1
0
INSERT
5
12B
100
AcDbEntity
8
0
6
ByLayer
62
256
370
-1
100
AcDbBlockReference
2
STATION
10
34
20
-68
30
0
41
1
42
1
43
0
50
0
70
1
71
1
44
1
45
1
0
LINE
5
12C
100
AcDbEntity
8
Transfers
6
ByLayer
62
256
370
-1
100
AcDbLine
10
30
20
-44
11
34
21
-44
0
LINE
5
12D
100
AcDbEntity
8
Transfers
6
ByLayer
62
256
370
-1
100
AcDbLine
10
30
20
-56
11
34
21
-56
0
LINE
5
12E
100
AcDbEntity
8
Transfers
6
ByLayer
62
256
370
-1
100
AcDbLine
10
30
20
-68
11
34
21
-68
0
LINE
5
12F
100
AcDbEntity
8
Transfers
6
ByLayer
62
256
370
-1
100
AcDbLine
10
38
20
-26
11
40
21
-26
0
LINE
5
130
100
AcDbEntity
8
Transfers
6
ByLayer
62
256
370
-1
100
AcDbLine
10
38
20
-14
11
40
21
-14
0
INSERT
5
131
100
AcDbEntity
8
0
6
ByLayer
62
256
370
-1
100
AcDbBlockReference
2
STATION
10
-16
20
-24
30
0
41
1
42
1
43
0
50
0
70
1
71
1
44
1
45
1
0
INSERT
5
132
100
AcDbEntity
8
0
6
ByLayer
62
256
370
-1
100
AcDbBlockReference
2
STATION
10
-5
20
-51
30
0
41
1
42
1
43
0
50
0
70
1
71
1
44
1
45
1
0
INSERT
5
133
100
AcDbEntity
8
0
6
ByLayer
62
256
370
-1
100
AcDbBlockReference
2
STATION
10
15.8284271247
20
-62
30
0
41
1
42
1
43
0
50
0
70
1
71
1
44
1
45
1
0
INSERT
5
134
100
AcDbEntity
8
0
6
ByLayer
62
256
370
-1
100
AcDbBlockReference
2
STATION
10
4.82842712475
20
-74
30
0
41
1
42
1
43
0
50
0
70
1
71
1
44
1
45
1
0
INSERT
5
135
100
AcDbEntity
8
0
6
ByLayer
62
256
370
-1
100
AcDbBlockReference
2
STATION
10
-24
20
-66
30
0
41
1
42
1
43
0
50
0
70
1
71
1
44
1
45
1
0
LINE
5
136
100
AcDbEntity
8
Transfers
6
ByLayer
62
256
370
-1
100
AcDbLine
10
-34
20
-46
11
-32
21
-46
0
LINE
5
137
100
AcDbEntity
8
Transfers
6
ByLayer
62
256
370
-1
100
AcDbLine
10
-18.3847763109
20
-21.2132034356
11
-16
21
-24
0
LINE
5
138
100
AcDbEntity
8
Transfers
6
ByLayer
62
256
370
-1
100
AcDbLine
10
28
20
-68
11
30
21
-68
0
INSERT
5
139
100
AcDbEntity
8
0
6
ByLayer
62
256
370
-1
100
AcDbBlockReference
2
STATION
10
72
20
0
30
0
41
1
42
1
43
0
50
0
70
1
71
1
44
1
45
1
0
TEXT
5
13A
100
AcDbEntity
8
0
6
ByLayer
62
256
370
-1
100
AcDbText
10
72
20
4
30
0
40
2.2
1
Showplace Square
50
0
41
1
51
0
7
standard
71
0
72
1
11
72
21
4
31
0
210
0
220
0
230
1
100
AcDbText
73
2
0
INSERT
5
13B
100
AcDbEntity
8
0
6
ByLayer
62
256
370
-1
100
AcDbBlockReference
2
STATION
10
72
20
-20
30
0
41
1
42
1
43
0
50
0
70
1
71
1
44
1
45
1
0
INSERT
5
13C
100
AcDbEntity
8
0
6
ByLayer
62
256
370
-1
100
AcDbBlockReference
2
STATION
10
72
20
-2
30
0
41
1
42
1
43
0
50
0
70
1
71
1
44
1
45
1
0
INSERT
5
13D
100
AcDbEntity
8
0
6
ByLayer
62
256
370
-1
100
AcDbBlockReference
2
STATION
10
90
20
-88
30
0
41
1
42
1
43
0
50
0
70
1
71
1
44
1
45
1
0
LINE
5
13E
100
AcDbEntity
8
Transfers
6
ByLayer
62
256
370
-1
100
AcDbLine
10
72
20
0
11
72
21
-2
0
LINE
5
13F
100
AcDbEntity
8
Transfers
6
ByLayer
62
256
370
-1
100
AcDbLine
10
90
20
-88
11
92
21
-88
0
TEXT
5
140
100
AcDbEntity
8
0
6
ByLayer
62
256
370
-1
100
AcDbText
10
74
20
-20
30
0
40
2.2
1
Potrero Hill
50
0
41
1
51
0
7
standard
71
0
11
74
21
-20
31
0
210
0
220
0
230
1
100
AcDbText
73
2
0
LINE
5
141
100
AcDbEntity
8
0
6
DASHED
62
176
420
128
370
200
100
AcDbLine
10
30
20
-20
11
30
21
-32
0
LINE
5
142
100
AcDbEntity
8
0
6
DASHED
62
176
420
128
370
200
100
AcDbLine
10
30
20
-32
11
30
21
-44
0
LINE
5
143
100
AcDbEntity
8
0
6
DASHED
62
176
420
128
370
200
100
AcDbLine
10
30
20
-44
11
30
21
-56
0
LINE
5
144
100
AcDbEntity
8
0
6
DASHED
62
176
420
128
370
200
100
AcDbLine
10
30
20
-56
11
30
21
-68
0
LINE
5
145
100
AcDbEntity
8
0
6
DASHED
62
176
420
128
370
200
100
AcDbLine
10
30
20
10.7695526218
11
30
21
-20
0
ARC
5
146
100
AcDbEntity
8
0
6
DASHED
62
176
420
128
370
200
100
AcDbCircle
10
26
20
10.7695526218
40
4
100
AcDbArc
50
360
51
45
0
TEXT
5
147
100
AcDbEntity
8
0
6
ByLayer
62
256
370
-1
100
AcDbText
10
4.82842712475
20
-78
30
0
40
2.2
1
Oceanview
50
0
41
1
51
0
7
standard
71
0
72
1
11
4.82842712475
21
-78
31
0
210
0
220
0
230
1
100
AcDbText
73
2
0
TEXT
5
148
100
AcDbEntity
8
0
6
ByLayer
62
256
370
-1
100
AcDbText
10
-26
20
-68
30
0
40
2.2
1
Ingleside Heights
50
0
41
1
51
0
7
standard
71
0
72
2
11
-26
21
-68
31
0
210
0
220
0
230
1
100
AcDbText
73
2
0
TEXT
5
149
100
AcDbEntity
8
0
6
ByLayer
62
256
370
-1
100
AcDbText
10
-6
20
-54
30
0
40
2.2
1
Lakeside
50
0
41
1
51
0
7
standard
71
0
72
2
11
-6
21
-54
31
0
210
0
220
0
230
1
100
AcDbText
73
2
0
TEXT
5
14A
100
AcDbEntity
8
0
6
ByLayer
62
256
370
-1
100
AcDbText
10
16
20
-66
30
0
40
2.2
1
Westwood Park
50
0
41
1
51
0
7
standard
71
0
72
2
11
16
21
-66
31
0
210
0
220
0
230
1
100
AcDbText
73
2
0
TEXT
5
14B
100
AcDbEntity
8
0
6
ByLayer
62
256
370
-1
100
AcDbText
10
36
20
-56
30
0
40
2.2
1
Glen Park
50
0
41
1
51
0
7
standard
71
0
11
36
21
-56
31
0
210
0
220
0
230
1
100
AcDbText
73
2
0
INSERT
5
14C
100
AcDbEntity
8
0
6
ByLayer
62
256
370
-1
100
AcDbBlockReference
2
STATION
10
72
20
-38
30
0
41
1
42
1
43
0
50
0
70
1
71
1
44
1
45
1
0
INSERT
5
14D
100
AcDbEntity
8
0
6
ByLayer
62
256
370
-1
100
AcDbBlockReference
2
STATION
10
72
20
-50
30
0
41
1
42
1
43
0
50
0
70
1
71
1
44
1
45
1
0
INSERT
5
14E
100
AcDbEntity
8
0
6
ByLayer
62
256
370
-1
100
AcDbBlockReference
2
STATION
10
72
20
-62
30
0
41
1
42
1
43
0
50
0
70
1
71
1
44
1
45
1
0
TEXT
5
14F
100
AcDbEntity
8
0
6
ByLayer
62
256
370
-1
100
AcDbText
10
70
20
-38
30
0
40
2.2
1
Potrero del Sol
50
0
41
1
51
0
7
standard
71
0
72
2
11
70
21
-38
31
0
210
0
220
0
230
1
100
AcDbText
73
2
0
TEXT
5
150
100
AcDbEntity
8
0
6
ByLayer
62
256
370
-1
100
AcDbText
10
70
20
-50
30
0
40
2.2
1
Bernal Heights
50
0
41
1
51
0
7
standard
71
0
72
2
11
70
21
-50
31
0
210
0
220
0
230
1
100
AcDbText
73
2
0
TEXT
5
151
100
AcDbEntity
8
0
6
ByLayer
62
256
370
-1
100
AcDbText
10
70
20
-62
30
0
40
2.2
1
Portola
50
0
41
1
51
0
7
standard
71
0
72
2
11
70
21
-62
31
0
210
0
220
0
230
1
100
AcDbText
73
2
0
LINE
5
152
100
AcDbEntity
8
0
6
ByLayer
62
2
370
200
100
AcDbLine
10
32
20
-68
11
32
21
-80.3431457505
0
ARC
5
153
100
AcDbEntity
8
0
6
ByLayer
62
2
370
200
100
AcDbCircle
10
36
20
-80.3431457505
40
4
100
AcDbArc
50
180
51
225
0
LINE
5
154
100
AcDbEntity
8
0
6
ByLayer
62
2
370
200
100
AcDbLine
10
33.1715728753
20
-83.1715728753
11
42.8284271247
21
-92.8284271247
0
ARC
5
155
100
AcDbEntity
8
0
6
ByLayer
62
2
370
200
100
AcDbCircle
10
45.6568542495
20
-90
40
4
100
AcDbArc
50
225
51
270
0
LINE
5
156
100
AcDbEntity
8
0
6
ByLayer
62
2
370
200
100
AcDbLine
10
86
20
-94
11
45.6568542495
21
-94
0
LINE
5
157
100
AcDbEntity
8
0
6
ByLayer
62
2
370
200
100
AcDbLine
10
90
20
-100
11
90
21
-98
0
ARC
5
158
100
AcDbEntity
8
0
6
ByLayer
62
2
370
200
100
AcDbCircle
10
86
20
-98
40
4
100
AcDbArc
50
0
51
90
0
LINE
5
159
100
AcDbEntity
8
0
6
ByLayer
62
2
370
200
100
AcDbLine
10
90
20
-100
11
90
21
-112
0
LINE
5
15A
100
AcDbEntity
8
Transfers
6
ByLayer
62
256
370
-1
100
AcDbLine
10
92
20
-100
11
90
21
-100
0
LINE
5
15B
100
AcDbEntity
8
Transfers
6
ByLayer
62
256
370
-1
100
AcDbLine
10
92
20
-112
11
90
21
-112
0
INSERT
5
15C
100
AcDbEntity
8
0
6
ByLayer
62
256
370
-1
100
AcDbBlockReference
2
STATION
10
38
20
-88
30
0
41
1
42
1
43
0
50
0
70
1
71
1
44
1
45
1
0
INSERT
5
15D
100
AcDbEntity
8
0
6
ByLayer
62
256
370
-1
100
AcDbBlockReference
2
STATION
10
59.1045694997
20
-94
30
0
41
1
42
1
43
0
50
0
70
1
71
1
44
1
45
1
0
INSERT
5
15E
100
AcDbEntity
8
0
6
ByLayer
62
256
370
-1
100
AcDbBlockReference
2
STATION
10
72.5522847498
20
-94
30
0
41
1
42
1
43
0
50
0
70
1
71
1
44
1
45
1
0
TEXT
5
15F
100
AcDbEntity
8
0
6
ByLayer
62
256
370
-1
100
AcDbText
10
36
20
-90
30
0
40
2.2
1
Daly City
50
0
41
1
51
0
7
standard
71
0
72
2
11
36
21
-90
31
0
210
0
220
0
230
1
100
AcDbText
73
2
0
TEXT
5
160
100
AcDbEntity
8
0
6
ByLayer
62
256
370
-1
100
AcDbText
10
59.1045694997
20
-90
30
0
40
2.2
1
Colma
50
0
41
1
51
0
7
standard
71
0
72
1
11
59.1045694997
21
-90
31
0
210
0
220
0
230
1
100
AcDbText
73
2
0
TEXT
5
161
100
AcDbEntity
8
0
6
ByLayer
62
256
370
-1
100
AcDbText
10
72.5522847498
20
-98
30
0
40
2.2
1
South City
50
0
41
1
51
0
7
standard
71
0
72
1
11
72.5522847498
21
-98
31
0
210
0
220
0
230
1
100
AcDbText
73
2
0
INSERT
5
162
100
AcDbEntity
8
0
6
ByLayer
62
256
370
-1
100
AcDbBlockReference
2
STATION
10
39.4142135624
20
-86.5857864376
30
0
41
1
42
1
43
0
50
0
70
1
71
1
44
1
45
1
0
LINE
5
163
100
AcDbEntity
8
0
6
ByLayer
62
56
420
8421376
370
200
100
AcDbLine
10
34
20
-68
11
34
21
-80.3431457505
0
LINE
5
164
100
AcDbEntity
8
0
6
ByLayer
62
56
420
8421376
370
200
100
AcDbLine
10
39.4142135624
20
-86.5857864376
11
34.5857864376
21
-81.7573593129
0
ARC
5
165
100
AcDbEntity
8
0
6
ByLayer
62
56
420
8421376
370
200
100
AcDbCircle
10
36
20
-80.3431457505
40
2
100
AcDbArc
50
180
51
225
0
LINE
5
166
100
AcDbEntity
8
Transfers
6
ByLayer
62
256
370
-1
100
AcDbLine
10
38
20
-88
11
39.4142135624
21
-86.5857864376
0
TEXT
5
167
100
AcDbEntity
8
0
6
ByLayer
62
256
370
-1
100
AcDbText
10
100
20
-4
30
0
40
2.2
1
South Beach
50
0
41
1
51
0
7
standard
71
0
11
100
21
-4
31
0
210
0
220
0
230
1
100
AcDbText
73
2
0
LINE
5
168
100
AcDbEntity
8
Transfers
6
ByLayer
62
256
370
-1
100
AcDbLine
10
94
20
0
11
96
21
2
0
LINE
5
169
100
AcDbEntity
8
Transfers
6
ByLayer
62
256
370
-1
100
AcDbLine
10
96
20
2
11
98
21
2
0
INSERT
5
16A
100
AcDbEntity
8
0
6
ByLayer
62
256
370
-1
100
AcDbBlockReference
2
STATION
10
-10
20
-10
30
0
41
1
42
1
43
0
50
0
70
1
71
1
44
1
45
1
0
INSERT
5
16B
100
AcDbEntity
8
0
6
ByLayer
62
256
370
-1
100
AcDbBlockReference
2
STATION
10
-20
20
2
30
0
41
1
42
1
43
0
50
0
70
1
71
1
44
1
45
1
0
LINE
5
16C
100
AcDbEntity
8
0
6
DASHED
62
9
370
200
100
AcDbLine
10
-20
20
2
11
-32
21
2
0
LINE
5
16D
100
AcDbEntity
8
0
6
DASHED
62
9
370
200
100
AcDbLine
10
-10
20
-10
11
-10
21
-2
0
LINE
5
16E
100
AcDbEntity
8
0
6
DASHED
62
9
370
200
100
AcDbLine
10
-20
20
2
11
-14
21
2
0
ARC
5
16F
100
AcDbEntity
8
0
6
DASHED
62
9
370
200
100
AcDbCircle
10
-14
20
-2
40
4
100
AcDbArc
50
0
51
90
0
TEXT
5
170
100
AcDbEntity
8
0
6
ByLayer
62
256
370
-1
100
AcDbText
10
-20
20
6
30
0
40
2.2
1
McCoppin Square
50
0
41
1
51
0
7
standard
71
0
72
1
11
-20
21
6
31
0
210
0
220
0
230
1
100
AcDbText
73
2
0
LINE
5
171
100
AcDbEntity
8
Transfers
6
ByLayer
62
256
370
-1
100
AcDbLine
10
-8.48528137424
20
-11.313708499
11
-10
21
-10
0
TEXT
5
172
100
AcDbEntity
8
0
6
ByLayer
62
256
370
-1
100
AcDbText
10
16
20
24
30
0
40
2.2
1
Duboce Triangle
50
0
41
1
51
0
7
standard
71
0
72
2
11
16
21
24
31
0
210
0
220
0
230
1
100
AcDbText
73
2
0
INSERT
5
173
100
AcDbEntity
8
0
6
ByLayer
62
256
370
-1
100
AcDbBlockReference
2
STATION
10
16
20
20
30
0
41
1
42
1
43
0
50
0
70
1
71
1
44
1
45
1
0
INSERT
5
174
100
AcDbEntity
8
0
6
ByLayer
62
256
370
-1
100
AcDbBlockReference
2
STATION
10
-12
20
20
30
0
41
1
42
1
43
0
50
0
70
1
71
1
44
1
45
1
0
INSERT
5
175
100
AcDbEntity
8
0
6
ByLayer
62
256
370
-1
100
AcDbBlockReference
2
STATION
10
-24
20
20
30
0
41
1
42
1
43
0
50
0
70
1
71
1
44
1
45
1
0
INSERT
5
176
100
AcDbEntity
8
0
6
ByLayer
62
256
370
-1
100
AcDbBlockReference
2
STATION
10
-36
20
20
30
0
41
1
42
1
43
0
50
0
70
1
71
1
44
1
45
1
0
INSERT
5
177
100
AcDbEntity
8
0
6
ByLayer
62
256
370
-1
100
AcDbBlockReference
2
STATION
10
-48
20
20
30
0
41
1
42
1
43
0
50
0
70
1
71
1
44
1
45
1
0
INSERT
5
178
100
AcDbEntity
8
0
6
ByLayer
62
256
370
-1
100
AcDbBlockReference
2
STATION
10
-60
20
20
30
0
41
1
42
1
43
0
50
0
70
1
71
1
44
1
45
1
0
LINE
5
179
100
AcDbEntity
8
Transfers
6
ByLayer
62
256
370
-1
100
AcDbLine
10
16
20
20
11
19.7989898732
21
19.7989898732
0
TEXT
5
17A
100
AcDbEntity
8
0
6
ByLayer
62
256
370
-1
100
AcDbText
10
-12
20
16
30
0
40
2.2
1
Cole Valley
50
0
41
1
51
0
7
standard
71
0
72
1
11
-12
21
16
31
0
210
0
220
0
230
1
100
AcDbText
73
2
0
TEXT
5
17B
100
AcDbEntity
8
0
6
ByLayer
62
256
370
-1
100
AcDbText
10
-24
20
24
30
0
40
2.2
1
Kezar
50
0
41
1
51
0
7
standard
71
0
72
1
11
-24
21
24
31
0
210
0
220
0
230
1
100
AcDbText
73
2
0
TEXT
5
17C
100
AcDbEntity
8
0
6
ByLayer
62
256
370
-1
100
AcDbText
10
-36
20
16
30
0
40
2.2
1
Inner Sunset
50
0
41
1
51
0
7
standard
71
0
72
1
11
-36
21
16
31
0
210
0
220
0
230
1
100
AcDbText
73
2
0
TEXT
5
17D
100
AcDbEntity
8
0
6
ByLayer
62
256
370
-1
100
AcDbText
10
-48
20
24
30
0
40
2.2
1
Outer Sunset
50
0
41
1
51
0
7
standard
71
0
72
1
11
-48
21
24
31
0
210
0
220
0
230
1
100
AcDbText
73
2
0
TEXT
5
17E
100
AcDbEntity
8
0
6
ByLayer
62
256
370
-1
100
AcDbText
10
-60
20
16
30
0
40
2.2
1
La Playa
50
0
41
1
51
0
7
standard
71
0
72
1
11
-60
21
16
31
0
210
0
220
0
230
1
100
AcDbText
73
2
0
INSERT
5
17F
100
AcDbEntity
8
0
6
ByLayer
62
256
370
-1
100
AcDbBlockReference
2
STATION
10
-38
20
2
30
0
41
1
42
1
43
0
50
0
70
1
71
1
44
1
45
1
0
INSERT
5
180
100
AcDbEntity
8
0
6
ByLayer
62
256
370
-1
100
AcDbBlockReference
2
STATION
10
-50
20
2
30
0
41
1
42
1
43
0
50
0
70
1
71
1
44
1
45
1
0
INSERT
5
181
100
AcDbEntity
8
0
6
ByLayer
62
256
370
-1
100
AcDbBlockReference
2
STATION
10
-60
20
-10
30
0
41
1
42
1
43
0
50
0
70
1
71
1
44
1
45
1
0
LINE
5
182
100
AcDbEntity
8
0
6
DASHED
62
9
370
200
100
AcDbLine
10
-38
20
2
11
-50
21
2
0
LINE
5
183
100
AcDbEntity
8
0
6
DASHED
62
9
370
200
100
AcDbLine
10
-50
20
2
11
-56
21
2
0
LINE
5
184
100
AcDbEntity
8
0
6
DASHED
62
9
370
200
100
AcDbLine
10
-60
20
-2
11
-60
21
-10
0
ARC
5
185
100
AcDbEntity
8
0
6
DASHED
62
9
370
200
100
AcDbCircle
10
-56
20
-2
40
4
100
AcDbArc
50
90
51
180
0
TEXT
5
186
100
AcDbEntity
8
0
6
ByLayer
62
256
370
-1
100
AcDbText
10
-38
20
-2
30
0
40
2.2
1
Parkside
50
0
41
1
51
0
7
standard
71
0
72
1
11
-38
21
-2
31
0
210
0
220
0
230
1
100
AcDbText
73
2
0
TEXT
5
187
100
AcDbEntity
8
0
6
ByLayer
62
256
370
-1
100
AcDbText
10
-50
20
6
30
0
40
2.2
1
Parkway
50
0
41
1
51
0
7
standard
71
0
72
1
11
-50
21
6
31
0
210
0
220
0
230
1
100
AcDbText
73
2
0
TEXT
5
188
100
AcDbEntity
8
0
6
ByLayer
62
256
370
-1
100
AcDbText
10
-58
20
-10
30
0
40
2.2
1
Fleishacker
50
0
41
1
51
0
7
standard
71
0
11
-58
21
-10
31
0
210
0
220
0
230
1
100
AcDbText
73
2
0
LINE
5
189
100
AcDbEntity
8
0
6
DASHED
62
9
370
200
100
AcDbLine
10
-38
20
2
11
-32
21
2
0
LINE
5
18A
100
AcDbEntity
8
0
6
DASHED
62
176
420
128
370
200
100
AcDbLine
10
28.8284271247
20
13.5979797465
11
3.17157287525
21
39.254833996
0
INSERT
5
18B
100
AcDbEntity
8
0
6
ByLayer
62
256
370
-1
100
AcDbBlockReference
2
STATION
10
18
20
50
30
0
41
1
42
1
43
0
50
0
70
1
71
1
44
1
45
1
0
INSERT
5
18C
100
AcDbEntity
8
0
6
ByLayer
62
256
370
-1
100
AcDbBlockReference
2
STATION
10
18
20
48
30
0
41
1
42
1
43
0
50
0
70
1
71
1
44
1
45
1
0
INSERT
5
18D
100
AcDbEntity
8
0
6
ByLayer
62
256
370
-1
100
AcDbBlockReference
2
STATION
10
0
20
50
30
0
41
1
42
1
43
0
50
0
70
1
71
1
44
1
45
1
0
INSERT
5
18E
100
AcDbEntity
8
0
6
ByLayer
62
256
370
-1
100
AcDbBlockReference
2
STATION
10
0
20
48
30
0
41
1
42
1
43
0
50
0
70
1
71
1
44
1
45
1
0
INSERT
5
18F
100
AcDbEntity
8
0
6
ByLayer
62
256
370
-1
100
AcDbBlockReference
2
STATION
10
2
20
46
30
0
41
1
42
1
43
0
50
0
70
1
71
1
44
1
45
1
0
INSERT
5
190
100
AcDbEntity
8
0
6
ByLayer
62
256
370
-1
100
AcDbBlockReference
2
STATION
10
2
20
74
30
0
41
1
42
1
43
0
50
0
70
1
71
1
44
1
45
1
0
INSERT
5
191
100
AcDbEntity
8
0
6
ByLayer
62
256
370
-1
100
AcDbBlockReference
2
STATION
10
2
20
76
30
0
41
1
42
1
43
0
50
0
70
1
71
1
44
1
45
1
0
INSERT
5
192
100
AcDbEntity
8
0
6
ByLayer
62
256
370
-1
100
AcDbBlockReference
2
STATION
10
-36
20
96
30
0
41
1
42
1
43
0
50
0
70
1
71
1
44
1
45
1
0
INSERT
5
193
100
AcDbEntity
8
0
6
ByLayer
62
256
370
-1
100
AcDbBlockReference
2
STATION
10
-24
20
48
30
0
41
1
42
1
43
0
50
0
70
1
71
1
44
1
45
1
0
INSERT
5
194
100
AcDbEntity
8
0
6
ByLayer
62
256
370
-1
100
AcDbBlockReference
2
STATION
10
-24
20
50
30
0
41
1
42
1
43
0
50
0
70
1
71
1
44
1
45
1
0
INSERT
5
195
100
AcDbEntity
8
0
6
ByLayer
62
256
370
-1
100
AcDbBlockReference
2
STATION
10
-24
20
52
30
0
41
1
42
1
43
0
50
0
70
1
71
1
44
1
45
1
0
INSERT
5
196
100
AcDbEntity
8
0
6
ByLayer
62
256
370
-1
100
AcDbBlockReference
2
STATION
10
-60
20
52
30
0
41
1
42
1
43
0
50
0
70
1
71
1
44
1
45
1
0
INSERT
5
197
100
AcDbEntity
8
0
6
ByLayer
62
256
370
-1
100
AcDbBlockReference
2
STATION
10
-48
20
52
30
0
41
1
42
1
43
0
50
0
70
1
71
1
44
1
45
1
0
INSERT
5
198
100
AcDbEntity
8
0
6
ByLayer
62
256
370
-1
100
AcDbBlockReference
2
STATION
10
-36
20
52
30
0
41
1
42
1
43
0
50
0
70
1
71
1
44
1
45
1
0
INSERT
5
199
100
AcDbEntity
8
0
6
ByLayer
62
256
370
-1
100
AcDbBlockReference
2
STATION
10
44
20
96
30
0
41
1
42
1
43
0
50
0
70
1
71
1
44
1
45
1
0
LINE
5
19A
100
AcDbEntity
8
0
6
DASHED
62
136
420
32896
370
200
100
AcDbLine
10
76
20
78.8284271247
11
62
21
92.8284271247
0
TEXT
5
19B
100
AcDbEntity
8
0
6
ByLayer
62
256
370
-1
100
AcDbText
10
-38
20
96
30
0
40
2.2
1
Golden Gate Bridge
50
0
41
1
51
0
7
standard
71
0
72
2
11
-38
21
96
31
0
210
0
220
0
230
1
100
AcDbText
73
2
0
INSERT
5
19C
100
AcDbEntity
8
0
6
ByLayer
62
256
370
-1
100
AcDbBlockReference
2
STATION
10
-8
20
96
30
0
41
1
42
1
43
0
50
0
70
1
71
1
44
1
45
1
0
INSERT
5
19D
100
AcDbEntity
8
0
6
ByLayer
62
256
370
-1
100
AcDbBlockReference
2
STATION
10
4
20
96
30
0
41
1
42
1
43
0
50
0
70
1
71
1
44
1
45
1
0
TEXT
5
19E
100
AcDbEntity
8
0
6
ByLayer
62
256
370
-1
100
AcDbText
10
-8
20
92
30
0
40
2.2
1
Crissy Field
50
0
41
1
51
0
7
standard
71
0
72
1
11
-8
21
92
31
0
210
0
220
0
230
1
100
AcDbText
73
2
0
TEXT
5
19F
100
AcDbEntity
8
0
6
ByLayer
62
256
370
-1
100
AcDbText
10
4
20
100
30
0
40
2.2
1
Fort Mason
50
0
41
1
51
0
7
standard
71
0
72
1
11
4
21
100
31
0
210
0
220
0
230
1
100
AcDbText
73
2
0
INSERT
5
1A0
100
AcDbEntity
8
0
6
ByLayer
62
256
370
-1
100
AcDbBlockReference
2
STATION
10
32
20
86
30
0
41
1
42
1
43
0
50
0
70
1
71
1
44
1
45
1
0
TEXT
5
1A1
100
AcDbEntity
8
0
6
ByLayer
62
256
370
-1
100
AcDbText
10
34
20
86
30
0
40
2.2
1
Fisherman's Wharf
50
0
41
1
51
0
7
standard
71
0
11
34
21
86
31
0
210
0
220
0
230
1
100
AcDbText
73
2
0
TEXT
5
1A2
100
AcDbEntity
8
0
6
ByLayer
62
256
370
-1
100
AcDbText
10
44
20
100
30
0
40
2.2
1
Pier 39
50
0
41
1
51
0
7
standard
71
0
72
1
11
44
21
100
31
0
210
0
220
0
230
1
100
AcDbText
73
2
0
INSERT
5
1A3
100
AcDbEntity
8
0
6
ByLayer
62
256
370
-1
100
AcDbBlockReference
2
STATION
10
67
20
87.8284271247
30
0
41
1
42
1
43
0
50
45
70
1
71
1
44
1
45
1
0
INSERT
5
1A4
100
AcDbEntity
8
0
6
ByLayer
62
256
370
-1
100
AcDbBlockReference
2
STATION
10
68.4142135624
20
89.2426406871
30
0
41
1
42
1
43
0
50
45
70
1
71
1
44
1
45
1
0
INSERT
5
1A5
100
AcDbEntity
8
0
6
ByLayer
62
256
370
-1
100
AcDbBlockReference
2
STATION
10
-30
20
96
30
0
41
1
42
1
43
0
50
0
70
1
71
1
44
1
45
1
0
TEXT
5
1A6
100
AcDbEntity
8
0
6
ByLayer
62
256
370
-1
100
AcDbText
10
-30
20
100
30
0
40
2.2
1
Fort Point
50
0
41
1
51
0
7
standard
71
0
11
-30
21
100
31
0
210
0
220
0
230
1
100
AcDbText
73
2
0
TEXT
5
1A7
100
AcDbEntity
8
0
6
ByLayer
62
256
370
-1
100
AcDbText
10
2
20
80
30
0
40
2.2
1
Marina
50
0
41
1
51
0
7
standard
71
0
72
1
11
2
21
80
31
0
210
0
220
0
230
1
100
AcDbText
73
2
0
LINE
5
1A8
100
AcDbEntity
8
0
6
DASHED
62
253
420
10526884
370
200
100
AcDbLine
10
86.8284271247
20
70.8284271247
11
63.4142135624
21
94.2426406871
0
INSERT
5
1A9
100
AcDbEntity
8
0
6
ByLayer
62
256
370
-1
100
AcDbBlockReference
2
STATION
10
-20
20
88
30
0
41
1
42
1
43
0
50
0
70
1
71
1
44
1
45
1
0
TEXT
5
1AA
100
AcDbEntity
8
0
6
ByLayer
62
256
370
-1
100
AcDbText
10
-20
20
84
30
0
40
2.2
1
Main Post
50
0
41
1
51
0
7
standard
71
0
72
1
11
-20
21
84
31
0
210
0
220
0
230
1
100
AcDbText
73
2
0
TEXT
5
1AB
100
AcDbEntity
8
0
6
ByLayer
62
256
370
-1
100
AcDbText
10
0
20
44
30
0
40
2.2
1
Japantown
50
0
41
1
51
0
7
standard
71
0
72
2
11
0
21
44
31
0
210
0
220
0
230
1
100
AcDbText
73
2
0
TEXT
5
1AC
100
AcDbEntity
8
0
6
ByLayer
62
256
370
-1
100
AcDbText
10
18
20
44
30
0
40
2.2
1
Polk Gulch
50
0
41
1
51
0
7
standard
71
0
72
1
11
18
21
44
31
0
210
0
220
0
230
1
100
AcDbText
73
2
0
TEXT
5
1AD
100
AcDbEntity
8
0
6
ByLayer
62
256
370
-1
100
AcDbText
10
-36
20
48
30
0
40
2.2
1
Inner Richmond
50
0
41
1
51
0
7
standard
71
0
72
1
11
-36
21
48
31
0
210
0
220
0
230
1
100
AcDbText
73
2
0
TEXT
5
1AE
100
AcDbEntity
8
0
6
ByLayer
62
256
370
-1
100
AcDbText
10
-48
20
56
30
0
40
2.2
1
Outer Richmond
50
0
41
1
51
0
7
standard
71
0
72
1
11
-48
21
56
31
0
210
0
220
0
230
1
100
AcDbText
73
2
0
TEXT
5
1AF
100
AcDbEntity
8
0
6
ByLayer
62
256
370
-1
100
AcDbText
10
-60
20
48
30
0
40
2.2
1
Point Lobos
50
0
41
1
51
0
7
standard
71
0
72
1
11
-60
21
48
31
0
210
0
220
0
230
1
100
AcDbText
73
2
0
TEXT
5
1B0
100
AcDbEntity
8
0
6
ByLayer
62
256
370
-1
100
AcDbText
10
-26
20
56
30
0
40
2.2
1
Laurel Heights
50
0
41
1
51
0
7
standard
71
0
11
-26
21
56
31
0
210
0
220
0
230
1
100
AcDbText
73
2
0
LINE
5
1B1
100
AcDbEntity
8
Transfers
6
ByLayer
62
256
370
-1
100
AcDbLine
10
-24
20
52
11
-24
21
50
0
LINE
5
1B2
100
AcDbEntity
8
Transfers
6
ByLayer
62
256
370
-1
100
AcDbLine
10
-24
20
50
11
-24
21
48
0
LINE
5
1B3
100
AcDbEntity
8
Transfers
6
ByLayer
62
256
370
-1
100
AcDbLine
10
0
20
50
11
0
21
48
0
LINE
5
1B4
100
AcDbEntity
8
Transfers
6
ByLayer
62
256
370
-1
100
AcDbLine
10
0
20
48
11
2
21
46
0
LINE
5
1B5
100
AcDbEntity
8
Transfers
6
ByLayer
62
256
370
-1
100
AcDbLine
10
2
20
76
11
2
21
74
0
LINE
5
1B6
100
AcDbEntity
8
Transfers
6
ByLayer
62
256
370
-1
100
AcDbLine
10
67
20
87.8284271247
11
68.4142135624
21
89.2426406871
0
LINE
5
1B7
100
AcDbEntity
8
Transfers
6
ByLayer
62
256
370
-1
100
AcDbLine
10
44
20
96
11
44
21
94
0
LINE
5
1B8
100
AcDbEntity
8
Transfers
6
ByLayer
62
256
370
-1
100
AcDbLine
10
18
20
50
11
18
21
48
0
INSERT
5
1B9
100
AcDbEntity
8
0
6
ByLayer
62
256
370
-1
100
AcDbBlockReference
2
STATION
10
2
20
64
30
0
41
1
42
1
43
0
50
0
70
1
71
1
44
1
45
1
0
TEXT
5
1BA
100
AcDbEntity
8
0
6
ByLayer
62
256
370
-1
100
AcDbText
10
4
20
64
30
0
40
2.2
1
Pacific Heights
50
0
41
1
51
0
7
standard
71
0
11
4
21
64
31
0
210
0
220
0
230
1
100
AcDbText
73
2
0
INSERT
5
1BB
100
AcDbEntity
8
0
6
ByLayer
62
256
370
-1
100
AcDbBlockReference
2
STATION
10
8.30294372515
20
34.1234631461
30
0
41
1
42
1
43
0
50
0
70
1
71
1
44
1
45
1
0
TEXT
5
1BC
100
AcDbEntity
8
0
6
ByLayer
62
256
370
-1
100
AcDbText
10
6
20
34
30
0
40
2.2
1
Alamo Square
50
0
41
1
51
0
7
standard
71
0
72
2
11
6
21
34
31
0
210
0
220
0
230
1
100
AcDbText
73
2
0
INSERT
5
1BD
100
AcDbEntity
8
0
6
ByLayer
62
256
370
-1
100
AcDbBlockReference
2
STATION
10
22
20
96
30
0
41
1
42
1
43
0
50
0
70
1
71
1
44
1
45
1
0
TEXT
5
1BE
100
AcDbEntity
8
0
6
ByLayer
62
256
370
-1
100
AcDbText
10
22
20
92
30
0
40
2.2
1
Aquatic Cove
50
0
41
1
51
0
7
standard
71
0
72
1
11
22
21
92
31
0
210
0
220
0
230
1
100
AcDbText
73
2
0
LINE
5
1BF
100
AcDbEntity
8
0
6
ByLayer
62
1
370
200
100
AcDbLine
10
2
20
76
11
14
21
76
0
LINE
5
1C0
100
AcDbEntity
8
0
6
ByLayer
62
1
370
200
100
AcDbLine
10
14
20
76
11
24.1665222415
21
76
0
ARC
5
1C1
100
AcDbEntity
8
0
6
ByLayer
62
1
370
200
100
AcDbCircle
10
24.1665222415
20
72
40
4
100
AcDbArc
50
45
51
90
0
LINE
5
1C2
100
AcDbEntity
8
0
6
ByLayer
62
1
370
200
100
AcDbLine
10
2
20
76
11
-0.343145750508
21
76
0
ARC
5
1C3
100
AcDbEntity
8
0
6
ByLayer
62
1
370
200
100
AcDbCircle
10
-0.343145750508
20
80
40
4
100
AcDbArc
50
225
51
270
0
LINE
5
1C4
100
AcDbEntity
8
0
6
ByLayer
62
1
370
200
100
AcDbLine
10
-3.17157287525
20
77.1715728753
11
-12.8284271247
21
86.8284271247
0
ARC
5
1C5
100
AcDbEntity
8
0
6
ByLayer
62
1
370
200
100
AcDbCircle
10
-15.6568542495
20
84
40
4
100
AcDbArc
50
45
51
90
0
LINE
5
1C6
100
AcDbEntity
8
0
6
ByLayer
62
1
370
200
100
AcDbLine
10
-15.6568542495
20
88
11
-32
21
88
0
LINE
5
1C7
100
AcDbEntity
8
0
6
ByLayer
62
1
370
200
100
AcDbLine
10
-36
20
92
11
-36
21
116
0
ARC
5
1C8
100
AcDbEntity
8
0
6
ByLayer
62
1
370
200
100
AcDbCircle
10
-32
20
92
40
4
100
AcDbArc
50
180
51
270
0
LINE
5
1C9
100
AcDbEntity
8
0
6
ByLayer
62
1
370
200
100
AcDbLine
10
-36
20
116
11
-36
21
128
0
LINE
5
1CA
100
AcDbEntity
8
0
6
ByLayer
62
1
370
200
100
AcDbLine
10
-36
20
128
11
-36
21
140
0
LINE
5
1CB
100
AcDbEntity
8
0
6
ByLayer
62
1
370
200
100
AcDbLine
10
-36
20
140
11
-36
21
152
0
ARC
5
1CC
100
AcDbEntity
8
0
6
DASHED
62
136
420
32896
370
200
100
AcDbCircle
10
36
20
90
40
4
100
AcDbArc
50
90
51
180
0
LINE
5
1CD
100
AcDbEntity
8
0
6
DASHED
62
136
420
32896
370
200
100
AcDbLine
10
36
20
94
11
59.1715728753
21
94
0
ARC
5
1CE
100
AcDbEntity
8
0
6
DASHED
62
136
420
32896
370
200
100
AcDbCircle
10
59.1715728753
20
90
40
4
100
AcDbArc
50
45
51
90
0
LINE
5
1CF
100
AcDbEntity
8
0
6
DASHED
62
136
420
32896
370
200
100
AcDbLine
10
32
20
86
11
32
21
90
0
LINE
5
1D0
100
AcDbEntity
8
0
6
DASHED
62
253
420
10526884
370
200
100
AcDbLine
10
-16
20
96
11
-4
21
96
0
LINE
5
1D1
100
AcDbEntity
8
0
6
DASHED
62
253
420
10526884
370
200
100
AcDbLine
10
-4
20
96
11
20
21
96
0
LINE
5
1D2
100
AcDbEntity
8
0
6
DASHED
62
253
420
10526884
370
200
100
AcDbLine
10
20
20
96
11
32
21
96
0
LINE
5
1D3
100
AcDbEntity
8
0
6
DASHED
62
253
420
10526884
370
200
100
AcDbLine
10
32
20
96
11
44
21
96
0
LINE
5
1D4
100
AcDbEntity
8
0
6
DASHED
62
253
420
10526884
370
200
100
AcDbLine
10
-30
20
96
11
-16
21
96
0
LINE
5
1D5
100
AcDbEntity
8
0
6
DASHED
62
253
420
10526884
370
200
100
AcDbLine
10
44
20
96
11
59.1715728753
21
96
0
ARC
5
1D6
100
AcDbEntity
8
0
6
DASHED
62
253
420
10526884
370
200
100
AcDbCircle
10
59.1715728753
20
90
40
6
100
AcDbArc
50
45
51
90
0
LINE
5
1D7
100
AcDbEntity
8
0
6
DASHED
62
176
420
128
370
200
100
AcDbLine
10
2
20
52
11
2
21
64
0
LINE
5
1D8
100
AcDbEntity
8
0
6
DASHED
62
176
420
128
370
200
100
AcDbLine
10
2
20
42.0832611207
11
2
21
52
0
ARC
5
1D9
100
AcDbEntity
8
0
6
DASHED
62
176
420
128
370
200
100
AcDbCircle
10
6
20
42.0832611207
40
4
100
AcDbArc
50
180
51
225
0
LINE
5
1DA
100
AcDbEntity
8
0
6
DASHED
62
176
420
128
370
200
100
AcDbLine
10
2
20
64
11
2
21
74
0
LINE
5
1DB
100
AcDbEntity
8
0
6
DASHED
62
9
370
200
100
AcDbLine
10
-16
20
-24
11
-16
21
-38.3431457505
0
ARC
5
1DC
100
AcDbEntity
8
0
6
DASHED
62
9
370
200
100
AcDbCircle
10
-12
20
-38.3431457505
40
4
100
AcDbArc
50
180
51
225
0
LINE
5
1DD
100
AcDbEntity
8
0
6
DASHED
62
9
370
200
100
AcDbLine
10
-14.8284271247
20
-41.1715728753
11
4.82842712475
21
-60.8284271247
0
ARC
5
1DE
100
AcDbEntity
8
0
6
DASHED
62
9
370
200
100
AcDbCircle
10
7.65685424949
20
-58
40
4
100
AcDbArc
50
225
51
270
0
LINE
5
1DF
100
AcDbEntity
8
0
6
DASHED
62
9
370
200
100
AcDbLine
10
7.65685424949
20
-62
11
24
21
-62
0
ARC
5
1E0
100
AcDbEntity
8
0
6
DASHED
62
9
370
200
100
AcDbCircle
10
24
20
-66
40
4
100
AcDbArc
50
0
51
90
0
LINE
5
1E1
100
AcDbEntity
8
0
6
DASHED
62
9
370
200
100
AcDbLine
10
28
20
-66
11
28
21
-70
0
ARC
5
1E2
100
AcDbEntity
8
0
6
DASHED
62
9
370
200
100
AcDbCircle
10
24
20
-70
40
4
100
AcDbArc
50
270
51
0
0
LINE
5
1E3
100
AcDbEntity
8
0
6
DASHED
62
9
370
200
100
AcDbLine
10
24
20
-74
11
-14.3431457505
21
-74
0
ARC
5
1E4
100
AcDbEntity
8
0
6
DASHED
62
9
370
200
100
AcDbCircle
10
-14.3431457505
20
-70
40
4
100
AcDbArc
50
225
51
270
0
LINE
5
1E5
100
AcDbEntity
8
0
6
DASHED
62
9
370
200
100
AcDbLine
10
-30.8284271247
20
-59.1715728753
11
-17.1715728753
21
-72.8284271247
0
LINE
5
1E6
100
AcDbEntity
8
0
6
DASHED
62
9
370
200
100
AcDbLine
10
-32
20
-46
11
-32
21
-56.3431457505
0
ARC
5
1E7
100
AcDbEntity
8
0
6
DASHED
62
9
370
200
100
AcDbCircle
10
-28
20
-56.3431457505
40
4
100
AcDbArc
50
180
51
225
0
LINE
5
1E8
100
AcDbEntity
8
0
6
DASHED
62
9
370
200
100
AcDbLine
10
72
20
-2
11
72
21
-20
0
LINE
5
1E9
100
AcDbEntity
8
0
6
DASHED
62
9
370
200
100
AcDbLine
10
72
20
-20
11
72
21
-32
0
LINE
5
1EA
100
AcDbEntity
8
0
6
DASHED
62
9
370
200
100
AcDbLine
10
72
20
-32
11
72
21
-44
0
LINE
5
1EB
100
AcDbEntity
8
0
6
DASHED
62
9
370
200
100
AcDbLine
10
72
20
-44
11
72
21
-56
0
LINE
5
1EC
100
AcDbEntity
8
0
6
DASHED
62
9
370
200
100
AcDbLine
10
72
20
-56
11
72
21
-64.3431457505
0
ARC
5
1ED
100
AcDbEntity
8
0
6
DASHED
62
9
370
200
100
AcDbCircle
10
76
20
-64.3431457505
40
4
100
AcDbArc
50
180
51
225
0
LINE
5
1EE
100
AcDbEntity
8
0
6
DASHED
62
9
370
200
100
AcDbLine
10
88.8284271247
20
-82.8284271247
11
73.1715728753
21
-67.1715728753
0
ARC
5
1EF
100
AcDbEntity
8
0
6
DASHED
62
9
370
200
100
AcDbCircle
10
86
20
-85.6568542495
40
4
100
AcDbArc
50
0
51
45
0
LINE
5
1F0
100
AcDbEntity
8
0
6
DASHED
62
9
370
200
100
AcDbLine
10
16
20
20
11
-12
21
20
0
LINE
5
1F1
100
AcDbEntity
8
0
6
DASHED
62
9
370
200
100
AcDbLine
10
-12
20
20
11
-24
21
20
0
LINE
5
1F2
100
AcDbEntity
8
0
6
DASHED
62
9
370
200
100
AcDbLine
10
-24
20
20
11
-36
21
20
0
LINE
5
1F3
100
AcDbEntity
8
0
6
DASHED
62
9
370
200
100
AcDbLine
10
-36
20
20
11
-48
21
20
0
LINE
5
1F4
100
AcDbEntity
8
0
6
DASHED
62
9
370
200
100
AcDbLine
10
-48
20
20
11
-60
21
20
0
LINE
5
1F5
100
AcDbEntity
8
0
6
DASHED
62
9
370
200
100
AcDbLine
10
-24
20
52
11
-36
21
52
0
LINE
5
1F6
100
AcDbEntity
8
0
6
DASHED
62
9
370
200
100
AcDbLine
10
-36
20
52
11
-48
21
52
0
LINE
5
1F7
100
AcDbEntity
8
0
6
DASHED
62
9
370
200
100
AcDbLine
10
-48
20
52
11
-60
21
52
0
LINE
5
1F8
100
AcDbEntity
8
0
6
DASHED
62
9
370
200
100
AcDbLine
10
90
20
-88
11
90
21
-85.6568542495
0
INSERT
5
1F9
100
AcDbEntity
8
0
6
ByLayer
62
256
370
-1
100
AcDbBlockReference
2
STATION
10
26.9949493662
20
74.8284271247
30
0
41
1
42
1
43
0
50
0
70
1
71
1
44
1
45
1
0
TEXT
5
1FA
100
AcDbEntity
8
0
6
ByLayer
62
256
370
-1
100
AcDbText
10
16
20
72
30
0
40
2.2
1
Cow Hollow
50
0
41
1
51
0
7
standard
71
0
72
1
11
16
21
72
31
0
210
0
220
0
230
1
100
AcDbText
73
2
0
INSERT
5
1FB
100
AcDbEntity
8
0
6
ByLayer
62
256
370
-1
100
AcDbBlockReference
2
STATION
10
16
20
76
30
0
41
1
42
1
43
0
50
0
70
1
71
1
44
1
45
1
0
INSERT
5
1FC
100
AcDbEntity
8
0
6
ByLayer
62
256
370
-1
100
AcDbBlockReference
2
STATION
10
36.868124486
20
64.9552520049
30
0
41
1
42
1
43
0
50
0
70
1
71
1
44
1
45
1
0
TEXT
5
1FD
100
AcDbEntity
8
0
6
ByLayer
62
256
370
-1
100
AcDbText
10
38
20
68
30
0
40
2.2
1
Chinatown
50
0
41
1
51
0
7
standard
71
0
11
38
21
68
31
0
210
0
220
0
230
1
100
AcDbText
73
2
0
INSERT
5
1FE
100
AcDbEntity
8
0
6
ByLayer
62
256
370
-1
100
AcDbBlockReference
2
STATION
10
160
20
58
30
0
41
1
42
1
43
0
50
0
70
1
71
1
44
1
45
1
0
INSERT
5
1FF
100
AcDbEntity
8
0
6
ByLayer
62
256
370
-1
100
AcDbBlockReference
2
STATION
10
160
20
82
30
0
41
1
42
1
43
0
50
0
70
1
71
1
44
1
45
1
0
INSERT
5
200
100
AcDbEntity
8
0
6
ByLayer
62
256
370
-1
100
AcDbBlockReference
2
STATION
10
160
20
94
30
0
41
1
42
1
43
0
50
0
70
1
71
1
44
1
45
1
0
INSERT
5
201
100
AcDbEntity
8
0
6
ByLayer
62
256
370
-1
100
AcDbBlockReference
2
STATION
10
160
20
106
30
0
41
1
42
1
43
0
50
0
70
1
71
1
44
1
45
1
0
TEXT
5
202
100
AcDbEntity
8
0
6
ByLayer
62
256
370
-1
100
AcDbText
10
154
20
106
30
0
40
2.2
1
Pill Hill
50
0
41
1
51
0
7
standard
71
0
72
2
11
154
21
106
31
0
210
0
220
0
230
1
100
AcDbText
73
2
0
TEXT
5
203
100
AcDbEntity
8
0
6
ByLayer
62
256
370
-1
100
AcDbText
10
166
20
82
30
0
40
2.2
1
Downtown Oakland
50
0
41
1
51
0
7
standard
71
0
11
166
21
82
31
0
210
0
220
0
230
1
100
AcDbText
73
2
0
TEXT
5
204
100
AcDbEntity
8
0
6
ByLayer
62
256
370
-1
100
AcDbText
10
166
20
94
30
0
40
2.2
1
Uptown Oakland
50
0
41
1
51
0
7
standard
71
0
11
166
21
94
31
0
210
0
220
0
230
1
100
AcDbText
73
2
0
TEXT
5
205
100
AcDbEntity
8
0
6
ByLayer
62
256
370
-1
100
AcDbText
10
142
20
76
30
0
40
2.2
1
West Oakland
50
0
41
1
51
0
7
standard
71
0
72
1
11
142
21
76
31
0
210
0
220
0
230
1
100
AcDbText
73
2
0
INSERT
5
206
100
AcDbEntity
8
0
6
ByLayer
62
256
370
-1
100
AcDbBlockReference
2
STATION
10
142
20
72
30
0
41
1
42
1
43
0
50
0
70
1
71
1
44
1
45
1
0
INSERT
5
207
100
AcDbEntity
8
0
6
ByLayer
62
256
370
-1
100
AcDbBlockReference
2
STATION
10
142
20
70
30
0
41
1
42
1
43
0
50
0
70
1
71
1
44
1
45
1
0
LINE
5
208
100
AcDbEntity
8
0
6
ByLayer
62
256
370
-1
100
AcDbLine
10
163
20
74
11
163
21
74
0
TEXT
5
209
100
AcDbEntity
8
0
6
ByLayer
62
256
370
-1
100
AcDbText
10
158
20
58
30
0
40
2.2
1
Jack London Square
50
0
41
1
51
0
7
standard
71
0
72
2
11
158
21
58
31
0
210
0
220
0
230
1
100
AcDbText
73
2
0
LINE
5
20A
100
AcDbEntity
8
Transfers
6
ByLayer
62
256
370
-1
100
AcDbLine
10
142
20
72
11
142
21
70
0
LINE
5
20B
100
AcDbEntity
8
Transfers
6
ByLayer
62
256
370
-1
100
AcDbLine
10
160
20
58
11
162
21
58
0
LINE
5
20C
100
AcDbEntity
8
Transfers
6
ByLayer
62
256
370
-1
100
AcDbLine
10
156
20
82
11
158
21
82
0
LINE
5
20D
100
AcDbEntity
8
Transfers
6
ByLayer
62
256
370
-1
100
AcDbLine
10
158
20
82
11
160
21
82
0
LINE
5
20E
100
AcDbEntity
8
Transfers
6
ByLayer
62
256
370
-1
100
AcDbLine
10
160
20
82
11
162
21
82
0
LINE
5
20F
100
AcDbEntity
8
Transfers
6
ByLayer
62
256
370
-1
100
AcDbLine
10
162
20
82
11
164
21
82
0
LINE
5
210
100
AcDbEntity
8
Transfers
6
ByLayer
62
256
370
-1
100
AcDbLine
10
156
20
94
11
158
21
94
0
LINE
5
211
100
AcDbEntity
8
Transfers
6
ByLayer
62
256
370
-1
100
AcDbLine
10
158
20
94
11
160
21
94
0
LINE
5
212
100
AcDbEntity
8
Transfers
6
ByLayer
62
256
370
-1
100
AcDbLine
10
160
20
94
11
162
21
94
0
LINE
5
213
100
AcDbEntity
8
Transfers
6
ByLayer
62
256
370
-1
100
AcDbLine
10
162
20
94
11
164
21
94
0
LINE
5
214
100
AcDbEntity
8
Transfers
6
ByLayer
62
256
370
-1
100
AcDbLine
10
156
20
106
11
158
21
106
0
LINE
5
215
100
AcDbEntity
8
Transfers
6
ByLayer
62
256
370
-1
100
AcDbLine
10
158
20
106
11
160
21
106
0
LINE
5
216
100
AcDbEntity
8
Transfers
6
ByLayer
62
256
370
-1
100
AcDbLine
10
160
20
106
11
162
21
106
0
LINE
5
217
100
AcDbEntity
8
Transfers
6
ByLayer
62
256
370
-1
100
AcDbLine
10
162
20
106
11
164
21
106
0
LINE
5
218
100
AcDbEntity
8
Transfers
6
ByLayer
62
256
370
-1
100
AcDbLine
10
156
20
130
11
158
21
130
0
LINE
5
219
100
AcDbEntity
8
Transfers
6
ByLayer
62
256
370
-1
100
AcDbLine
10
158
20
130
11
160
21
130
0
LINE
5
21A
100
AcDbEntity
8
Transfers
6
ByLayer
62
256
370
-1
100
AcDbLine
10
160
20
130
11
162
21
130
0
LINE
5
21B
100
AcDbEntity
8
0
6
ByLayer
62
2
370
200
100
AcDbLine
10
126
20
72
11
152
21
72
0
LINE
5
21C
100
AcDbEntity
8
0
6
ByLayer
62
2
370
200
100
AcDbLine
10
156
20
76
11
156
21
130
0
ARC
5
21D
100
AcDbEntity
8
0
6
ByLayer
62
2
370
200
100
AcDbCircle
10
152
20
76
40
4
100
AcDbArc
50
270
51
0
0
LINE
5
21E
100
AcDbEntity
8
0
6
ByLayer
62
56
420
8421376
370
200
100
AcDbLine
10
126
20
70
11
152
21
70
0
ARC
5
21F
100
AcDbEntity
8
0
6
ByLayer
62
56
420
8421376
370
200
100
AcDbCircle
10
152
20
76
40
6
100
AcDbArc
50
270
51
0
0
LINE
5
220
100
AcDbEntity
8
0
6
ByLayer
62
5
370
200
100
AcDbLine
10
160
20
58
11
160
21
82
0
LINE
5
221
100
AcDbEntity
8
0
6
ByLayer
62
5
370
200
100
AcDbLine
10
160
20
82
11
160
21
94
0
LINE
5
222
100
AcDbEntity
8
0
6
ByLayer
62
5
370
200
100
AcDbLine
10
160
20
94
11
160
21
106
0
LINE
5
223
100
AcDbEntity
8
0
6
ByLayer
62
5
370
200
100
AcDbLine
10
160
20
106
11
160
21
130
0
LINE
5
224
100
AcDbEntity
8
0
6
ByLayer
62
40
420
16755200
370
200
100
AcDbLine
10
162
20
76
11
162
21
130
0
LINE
5
225
100
AcDbEntity
8
0
6
ByLayer
62
40
420
16755200
370
200
100
AcDbLine
10
166
20
72
11
178
21
72
0
INSERT
5
226
100
AcDbEntity
8
0
6
ByLayer
62
256
370
-1
100
AcDbBlockReference
2
STATION
10
172
20
118
30
0
41
1
42
1
43
0
50
0
70
1
71
1
44
1
45
1
0
TEXT
5
227
100
AcDbEntity
8
0
6
ByLayer
62
256
370
-1
100
AcDbText
10
28
20
78
30
0
40
2.2
1
Little Italy
50
0
41
1
51
0
7
standard
71
0
11
28
21
78
31
0
210
0
220
0
230
1
100
AcDbText
73
2
0
TEXT
5
228
100
AcDbEntity
8
0
6
ByLayer
62
256
370
-1
100
AcDbText
10
70
20
92
30
0
40
2.2
1
Telegraph Hill
50
0
41
1
51
0
7
standard
71
0
11
70
21
92
31
0
210
0
220
0
230
1
100
AcDbText
73
2
0
INSERT
5
229
100
AcDbEntity
8
0
6
ByLayer
62
256
370
-1
100
AcDbBlockReference
2
STATION
10
160
20
32
30
0
41
1
42
1
43
0
50
0
70
1
71
1
44
1
45
1
0
INSERT
5
22A
100
AcDbEntity
8
0
6
ByLayer
62
256
370
-1
100
AcDbBlockReference
2
STATION
10
162
20
32
30
0
41
1
42
1
43
0
50
0
70
1
71
1
44
1
45
1
0
INSERT
5
22B
100
AcDbEntity
8
0
6
ByLayer
62
256
370
-1
100
AcDbBlockReference
2
STATION
10
174
20
40
30
0
41
1
42
1
43
0
50
0
70
1
71
1
44
1
45
1
0
TEXT
5
22C
100
AcDbEntity
8
0
6
ByLayer
62
256
370
-1
100
AcDbText
10
158
20
32
30
0
40
2.2
1
West Alameda
50
0
41
1
51
0
7
standard
71
0
72
2
11
158
21
32
31
0
210
0
220
0
230
1
100
AcDbText
73
2
0
TEXT
5
22D
100
AcDbEntity
8
0
6
ByLayer
62
256
370
-1
100
AcDbText
10
174
20
44
30
0
40
2.2
1
East Alameda
50
0
41
1
51
0
7
standard
71
0
72
1
11
174
21
44
31
0
210
0
220
0
230
1
100
AcDbText
73
2
0
LINE
5
22E
100
AcDbEntity
8
0
6
ByLayer
62
3
370
200
100
AcDbLine
10
166
20
40
11
174
21
40
0
ARC
5
22F
100
AcDbEntity
8
0
6
ByLayer
62
3
370
200
100
AcDbCircle
10
166
20
36
40
4
100
AcDbArc
50
90
51
180
0
LINE
5
230
100
AcDbEntity
8
0
6
ByLayer
62
5
370
200
100
AcDbLine
10
160
20
25.6568542495
11
160
21
58
0
LINE
5
231
100
AcDbEntity
8
0
6
ByLayer
62
5
370
200
100
AcDbLine
10
102
20
-10
11
124.343145751
21
-10
0
LINE
5
232
100
AcDbEntity
8
0
6
ByLayer
62
3
370
200
100
AcDbLine
10
102
20
-12
11
124.343145751
21
-12
0
LINE
5
233
100
AcDbEntity
8
0
6
ByLayer
62
3
370
200
100
AcDbLine
10
162
20
25.6568542495
11
162
21
36
0
ARC
5
234
100
AcDbEntity
8
0
6
ByLayer
62
5
370
200
100
AcDbCircle
10
156
20
25.6568542495
40
4
100
AcDbArc
50
315
51
0
0
LINE
5
235
100
AcDbEntity
8
0
6
ByLayer
62
5
370
200
100
AcDbLine
10
158.828427125
20
22.8284271247
11
127.171572875
21
-8.82842712475
0
ARC
5
236
100
AcDbEntity
8
0
6
ByLayer
62
5
370
200
100
AcDbCircle
10
124.343145751
20
-6
40
4
100
AcDbArc
50
270
51
315
0
ARC
5
237
100
AcDbEntity
8
0
6
ByLayer
62
3
370
200
100
AcDbCircle
10
124.343145751
20
-6
40
6
100
AcDbArc
50
270
51
315
0
LINE
5
238
100
AcDbEntity
8
0
6
ByLayer
62
3
370
200
100
AcDbLine
10
160.242640687
20
21.4142135624
11
128.585786438
21
-10.2426406871
0
ARC
5
239
100
AcDbEntity
8
0
6
ByLayer
62
3
370
200
100
AcDbCircle
10
156
20
25.6568542495
40
6
100
AcDbArc
50
315
51
0
0
LINE
5
23A
100
AcDbEntity
8
0
6
ByLayer
62
3
370
200
100
AcDbLine
10
174
20
40
11
182.343145751
21
40
0
INSERT
5
23B
100
AcDbEntity
8
0
6
ByLayer
62
256
370
-1
100
AcDbBlockReference
2
STATION
10
212
20
62
30
0
41
1
42
1
43
0
50
0
70
1
71
1
44
1
45
1
0
INSERT
5
23C
100
AcDbEntity
8
0
6
ByLayer
62
256
370
-1
100
AcDbBlockReference
2
STATION
10
212
20
64
30
0
41
1
42
1
43
0
50
0
70
1
71
1
44
1
45
1
0
LINE
5
23D
100
AcDbEntity
8
0
6
ByLayer
62
3
370
200
100
AcDbLine
10
212
20
62
11
224
21
62
0
ARC
5
23E
100
AcDbEntity
8
0
6
ByLayer
62
3
370
200
100
AcDbCircle
10
182.343145751
20
44
40
4
100
AcDbArc
50
270
51
315
0
LINE
5
23F
100
AcDbEntity
8
0
6
ByLayer
62
3
370
200
100
AcDbLine
10
185.171572875
20
41.1715728753
11
204.828427125
21
60.8284271247
0
LINE
5
240
100
AcDbEntity
8
0
6
ByLayer
62
3
370
200
100
AcDbLine
10
207.656854249
20
62
11
212
21
62
0
ARC
5
241
100
AcDbEntity
8
0
6
ByLayer
62
3
370
200
100
AcDbCircle
10
207.656854249
20
58
40
4
100
AcDbArc
50
90
51
135
0
LINE
5
242
100
AcDbEntity
8
0
6
ByLayer
62
40
420
16755200
370
200
100
AcDbLine
10
224
20
64
11
212
21
64
0
LINE
5
243
100
AcDbEntity
8
0
6
ByLayer
62
40
420
16755200
370
200
100
AcDbLine
10
178
20
72
11
196.343145751
21
72
0
ARC
5
244
100
AcDbEntity
8
0
6
ByLayer
62
40
420
16755200
370
200
100
AcDbCircle
10
196.343145751
20
68
40
4
100
AcDbArc
50
45
51
90
0
LINE
5
245
100
AcDbEntity
8
0
6
ByLayer
62
40
420
16755200
370
200
100
AcDbLine
10
204.828427125
20
65.1715728753
11
199.171572875
21
70.8284271247
0
LINE
5
246
100
AcDbEntity
8
0
6
ByLayer
62
40
420
16755200
370
200
100
AcDbLine
10
212
20
64
11
207.656854249
21
64
0
ARC
5
247
100
AcDbEntity
8
0
6
ByLayer
62
40
420
16755200
370
200
100
AcDbCircle
10
207.656854249
20
68
40
4
100
AcDbArc
50
225
51
270
0
LINE
5
248
100
AcDbEntity
8
Transfers
6
ByLayer
62
256
370
-1
100
AcDbLine
10
212
20
64
11
212
21
62
0
LINE
5
249
100
AcDbEntity
8
Transfers
6
ByLayer
62
256
370
-1
100
AcDbLine
10
160
20
32
11
162
21
32
0
TEXT
5
24A
100
AcDbEntity
8
0
6
ByLayer
62
256
370
-1
100
AcDbText
10
212
20
68
30
0
40
2.2
1
Coliseum
50
0
41
1
51
0
7
standard
71
0
72
1
11
212
21
68
31
0
210
0
220
0
230
1
100
AcDbText
73
2
0
LINE
5
24B
100
AcDbEntity
8
Transfers
6
ByLayer
62
256
370
-1
100
AcDbLine
10
210
20
60
11
212
21
62
0
INSERT
5
24C
100
AcDbEntity
8
0
6
ByLayer
62
256
370
-1
100
AcDbBlockReference
2
STATION
10
178
20
72
30
0
41
1
42
1
43
0
50
0
70
1
71
1
44
1
45
1
0
INSERT
5
24D
100
AcDbEntity
8
0
6
ByLayer
62
256
370
-1
100
AcDbBlockReference
2
STATION
10
190
20
72
30
0
41
1
42
1
43
0
50
0
70
1
71
1
44
1
45
1
0
TEXT
5
24E
100
AcDbEntity
8
0
6
ByLayer
62
256
370
-1
100
AcDbText
10
178
20
68
30
0
40
2.2
1
Lake Merrit
50
0
41
1
51
0
7
standard
71
0
72
1
11
178
21
68
31
0
210
0
220
0
230
1
100
AcDbText
73
2
0
TEXT
5
24F
100
AcDbEntity
8
0
6
ByLayer
62
256
370
-1
100
AcDbText
10
190
20
76
30
0
40
2.2
1
Fruitvale
50
0
41
1
51
0
7
standard
71
0
72
1
11
190
21
76
31
0
210
0
220
0
230
1
100
AcDbText
73
2
0
LINE
5
250
100
AcDbEntity
8
0
6
DASHED
62
8
370
200
100
AcDbLine
10
164
20
106
11
164
21
94
0
LINE
5
251
100
AcDbEntity
8
0
6
DASHED
62
8
370
200
100
AcDbLine
10
164
20
94
11
164
21
82
0
LINE
5
252
100
AcDbEntity
8
0
6
DASHED
62
8
370
200
100
AcDbLine
10
164
20
114
11
164
21
106
0
ARC
5
253
100
AcDbEntity
8
0
6
DASHED
62
8
370
200
100
AcDbCircle
10
168
20
114
40
4
100
AcDbArc
50
90
51
180
0
LINE
5
254
100
AcDbEntity
8
0
6
DASHED
62
8
370
200
100
AcDbLine
10
168
20
118
11
172
21
118
0
LINE
5
255
100
AcDbEntity
8
0
6
DASHED
62
8
370
200
100
AcDbLine
10
162
20
71.1715728753
11
162
21
58
0
ARC
5
256
100
AcDbEntity
8
0
6
DASHED
62
8
370
200
100
AcDbCircle
10
164
20
71.1715728753
40
2
100
AcDbArc
50
135
51
180
0
LINE
5
257
100
AcDbEntity
8
0
6
DASHED
62
8
370
200
100
AcDbLine
10
164
20
82
11
164
21
74.8284271247
0
ARC
5
258
100
AcDbEntity
8
0
6
DASHED
62
8
370
200
100
AcDbCircle
10
162
20
74.8284271247
40
2
100
AcDbArc
50
315
51
0
0
LINE
5
259
100
AcDbEntity
8
0
6
DASHED
62
8
370
200
100
AcDbLine
10
163.414213562
20
73.4142135624
11
162.585786438
21
72.5857864376
0
INSERT
5
25A
100
AcDbEntity
8
0
6
ByLayer
62
256
370
-1
100
AcDbBlockReference
2
STATION
10
210
20
48
30
0
41
1
42
1
43
0
50
0
70
1
71
1
44
1
45
1
0
TEXT
5
25B
100
AcDbEntity
8
0
6
ByLayer
62
256
370
-1
100
AcDbText
10
212
20
48
30
0
40
2.2
1
Oakland Airport
50
0
41
1
51
0
7
standard
71
0
11
212
21
48
31
0
210
0
220
0
230
1
100
AcDbText
73
2
0
LINE
5
25C
100
AcDbEntity
8
0
6
ByLayer
62
9
370
200
100
AcDbLine
10
210
20
60
11
210
21
48
0
LINE
5
25D
100
AcDbEntity
8
0
6
ByLayer
62
40
420
16755200
370
200
100
AcDbLine
10
224
20
64
11
232.343145751
21
64
0
LINE
5
25E
100
AcDbEntity
8
0
6
ByLayer
62
40
420
16755200
370
200
100
AcDbLine
10
236.585786438
20
62.2426406871
11
243.899494937
21
54.9289321881
0
ARC
5
25F
100
AcDbEntity
8
0
6
ByLayer
62
40
420
16755200
370
200
100
AcDbCircle
10
232.343145751
20
58
40
6
100
AcDbArc
50
45
51
90
0
LINE
5
260
100
AcDbEntity
8
0
6
ByLayer
62
40
420
16755200
370
200
100
AcDbLine
10
248
20
42
11
248
21
40
0
LINE
5
261
100
AcDbEntity
8
0
6
ByLayer
62
40
420
16755200
370
200
100
AcDbLine
10
248
20
40
11
248
21
28
0
LINE
5
262
100
AcDbEntity
8
0
6
ByLayer
62
40
420
16755200
370
200
100
AcDbLine
10
248
20
28
11
248
21
16
0
LINE
5
263
100
AcDbEntity
8
0
6
ByLayer
62
40
420
16755200
370
200
100
AcDbLine
10
248
20
16
11
248
21
4
0
LINE
5
264
100
AcDbEntity
8
0
6
ByLayer
62
40
420
16755200
370
200
100
AcDbLine
10
243.899494937
20
54.9289321881
11
246.242640687
21
52.5857864376
0
LINE
5
265
100
AcDbEntity
8
0
6
ByLayer
62
40
420
16755200
370
200
100
AcDbLine
10
248
20
48.3431457505
11
248
21
42
0
ARC
5
266
100
AcDbEntity
8
0
6
ByLayer
62
40
420
16755200
370
200
100
AcDbCircle
10
242
20
48.3431457505
40
6
100
AcDbArc
50
0
51
45
0
LINE
5
267
100
AcDbEntity
8
0
6
ByLayer
62
3
370
200
100
AcDbLine
10
243.899494937
20
52.1005050634
11
253.798989873
21
42.2010101268
0
LINE
5
268
100
AcDbEntity
8
0
6
ByLayer
62
3
370
200
100
AcDbLine
10
224
20
62
11
232.343145751
21
62
0
LINE
5
269
100
AcDbEntity
8
0
6
ByLayer
62
3
370
200
100
AcDbLine
10
235.171572875
20
60.8284271247
11
243.899494937
21
52.1005050634
0
ARC
5
26A
100
AcDbEntity
8
0
6
ByLayer
62
3
370
200
100
AcDbCircle
10
232.343145751
20
58
40
4
100
AcDbArc
50
45
51
90
0
INSERT
5
26B
100
AcDbEntity
8
0
6
ByLayer
62
256
370
-1
100
AcDbBlockReference
2
STATION
10
226
20
64
30
0
41
1
42
1
43
0
50
0
70
1
71
1
44
1
45
1
0
INSERT
5
26C
100
AcDbEntity
8
0
6
ByLayer
62
256
370
-1
100
AcDbBlockReference
2
STATION
10
226
20
62
30
0
41
1
42
1
43
0
50
0
70
1
71
1
44
1
45
1
0
TEXT
5
26D
100
AcDbEntity
8
0
6
ByLayer
62
256
370
-1
100
AcDbText
10
226
20
58
30
0
40
2.2
1
San Leandro
50
0
41
1
51
0
7
standard
71
0
72
1
11
226
21
58
31
0
210
0
220
0
230
1
100
AcDbText
73
2
0
LINE
5
26E
100
AcDbEntity
8
Transfers
6
ByLayer
62
256
370
-1
100
AcDbLine
10
226
20
64
11
226
21
62
0
INSERT
5
26F
100
AcDbEntity
8
0
6
ByLayer
62
256
370
-1
100
AcDbBlockReference
2
STATION
10
255.798989873
20
40.2010101268
30
0
41
1
42
1
43
0
50
45
70
1
71
1
44
1
45
1
0
INSERT
5
270
100
AcDbEntity
8
0
6
ByLayer
62
256
370
-1
100
AcDbBlockReference
2
STATION
10
239.899494937
20
56.1005050634
30
0
41
1
42
1
43
0
50
45
70
1
71
1
44
1
45
1
0
INSERT
5
271
100
AcDbEntity
8
0
6
ByLayer
62
256
370
-1
100
AcDbBlockReference
2
STATION
10
241.313708499
20
57.5147186258
30
0
41
1
42
1
43
0
50
45
70
1
71
1
44
1
45
1
0
LINE
5
272
100
AcDbEntity
8
Transfers
6
ByLayer
62
256
370
-1
100
AcDbLine
10
239.899494937
20
56.1005050634
11
241.313708499
21
57.5147186258
0
TEXT
5
273
100
AcDbEntity
8
0
6
ByLayer
62
256
370
-1
100
AcDbText
10
242
20
60
30
0
40
2.2
1
Bay Fair
50
0
41
1
51
0
7
standard
71
0
11
242
21
60
31
0
210
0
220
0
230
1
100
AcDbText
73
2
0
TEXT
5
274
100
AcDbEntity
8
0
6
ByLayer
62
256
370
-1
100
AcDbText
10
258
20
42
30
0
40
2.2
1
Castro Valley
50
0
41
1
51
0
7
standard
71
0
11
258
21
42
31
0
210
0
220
0
230
1
100
AcDbText
73
2
0
LINE
5
275
100
AcDbEntity
8
0
6
ByLayer
62
3
370
200
100
AcDbLine
10
253.798989873
20
42.2010101268
11
260.828427125
21
35.1715728753
0
INSERT
5
276
100
AcDbEntity
8
0
6
ByLayer
62
256
370
-1
100
AcDbBlockReference
2
STATION
10
270
20
34
30
0
41
1
42
1
43
0
50
0
70
1
71
1
44
1
45
1
0
INSERT
5
277
100
AcDbEntity
8
0
6
ByLayer
62
256
370
-1
100
AcDbBlockReference
2
STATION
10
282
20
34
30
0
41
1
42
1
43
0
50
0
70
1
71
1
44
1
45
1
0
LINE
5
278
100
AcDbEntity
8
0
6
ByLayer
62
3
370
200
100
AcDbLine
10
270
20
34
11
282
21
34
0
LINE
5
279
100
AcDbEntity
8
0
6
ByLayer
62
3
370
200
100
AcDbLine
10
263.656854249
20
34
11
270
21
34
0
ARC
5
27A
100
AcDbEntity
8
0
6
ByLayer
62
3
370
200
100
AcDbCircle
10
263.656854249
20
38
40
4
100
AcDbArc
50
225
51
270
0
TEXT
5
27B
100
AcDbEntity
8
0
6
ByLayer
62
256
370
-1
100
AcDbText
10
270
20
30
30
0
40
2.2
1
West Dublin
50
0
41
1
51
0
7
standard
71
0
72
1
11
270
21
30
31
0
210
0
220
0
230
1
100
AcDbText
73
2
0
TEXT
5
27C
100
AcDbEntity
8
0
6
ByLayer
62
256
370
-1
100
AcDbText
10
282
20
38
30
0
40
2.2
1
East Dublin
50
0
41
1
51
0
7
standard
71
0
72
1
11
282
21
38
31
0
210
0
220
0
230
1
100
AcDbText
73
2
0
INSERT
5
27D
100
AcDbEntity
8
0
6
ByLayer
62
256
370
-1
100
AcDbBlockReference
2
STATION
10
248
20
36
30
0
41
1
42
1
43
0
50
0
70
1
71
1
44
1
45
1
0
INSERT
5
27E
100
AcDbEntity
8
0
6
ByLayer
62
256
370
-1
100
AcDbBlockReference
2
STATION
10
248
20
24
30
0
41
1
42
1
43
0
50
0
70
1
71
1
44
1
45
1
0
INSERT
5
27F
100
AcDbEntity
8
0
6
ByLayer
62
256
370
-1
100
AcDbBlockReference
2
STATION
10
248
20
12
30
0
41
1
42
1
43
0
50
0
70
1
71
1
44
1
45
1
0
INSERT
5
280
100
AcDbEntity
8
0
6
ByLayer
62
256
370
-1
100
AcDbBlockReference
2
STATION
10
248
20
0
30
0
41
1
42
1
43
0
50
0
70
1
71
1
44
1
45
1
0
LINE
5
281
100
AcDbEntity
8
0
6
ByLayer
62
40
420
16755200
370
200
100
AcDbLine
10
248
20
4
11
248
21
0
0
TEXT
5
282
100
AcDbEntity
8
0
6
ByLayer
62
256
370
-1
100
AcDbText
10
246
20
36
30
0
40
2.2
1
Hayward
50
0
41
1
51
0
7
standard
71
0
72
2
11
246
21
36
31
0
210
0
220
0
230
1
100
AcDbText
73
2
0
TEXT
5
283
100
AcDbEntity
8
0
6
ByLayer
62
256
370
-1
100
AcDbText
10
246
20
24
30
0
40
2.2
1
South Hayward
50
0
41
1
51
0
7
standard
71
0
72
2
11
246
21
24
31
0
210
0
220
0
230
1
100
AcDbText
73
2
0
TEXT
5
284
100
AcDbEntity
8
0
6
ByLayer
62
256
370
-1
100
AcDbText
10
246
20
12
30
0
40
2.2
1
Union City
50
0
41
1
51
0
7
standard
71
0
72
2
11
246
21
12
31
0
210
0
220
0
230
1
100
AcDbText
73
2
0
TEXT
5
285
100
AcDbEntity
8
0
6
ByLayer
62
256
370
-1
100
AcDbText
10
246
20
0
30
0
40
2.2
1
Fremont
50
0
41
1
51
0
7
standard
71
0
72
2
11
246
21
0
31
0
210
0
220
0
230
1
100
AcDbText
73
2
0
INSERT
5
286
100
AcDbEntity
8
0
6
ByLayer
62
256
370
-1
100
AcDbBlockReference
2
STATION
10
178
20
128
30
0
41
1
42
1
43
0
50
0
70
1
71
1
44
1
45
1
0
INSERT
5
287
100
AcDbEntity
8
0
6
ByLayer
62
256
370
-1
100
AcDbBlockReference
2
STATION
10
190
20
128
30
0
41
1
42
1
43
0
50
0
70
1
71
1
44
1
45
1
0
INSERT
5
288
100
AcDbEntity
8
0
6
ByLayer
62
256
370
-1
100
AcDbBlockReference
2
STATION
10
202
20
128
30
0
41
1
42
1
43
0
50
0
70
1
71
1
44
1
45
1
0
TEXT
5
289
100
AcDbEntity
8
0
6
ByLayer
62
256
370
-1
100
AcDbText
10
178
20
132
30
0
40
2.2
1
Piedmont
50
0
41
1
51
0
7
standard
71
0
72
1
11
178
21
132
31
0
210
0
220
0
230
1
100
AcDbText
73
2
0
TEXT
5
28A
100
AcDbEntity
8
0
6
ByLayer
62
256
370
-1
100
AcDbText
10
190
20
124
30
0
40
2.2
1
Adams Point
50
0
41
1
51
0
7
standard
71
0
72
1
11
190
21
124
31
0
210
0
220
0
230
1
100
AcDbText
73
2
0
TEXT
5
28B
100
AcDbEntity
8
0
6
ByLayer
62
256
370
-1
100
AcDbText
10
202
20
132
30
0
40
2.2
1
Trestle Glen
50
0
41
1
51
0
7
standard
71
0
72
1
11
202
21
132
31
0
210
0
220
0
230
1
100
AcDbText
73
2
0
LINE
5
28C
100
AcDbEntity
8
Transfers
6
ByLayer
62
256
370
-1
100
AcDbLine
10
156
20
130
11
154
21
128
0
TEXT
5
28D
100
AcDbEntity
8
0
6
ByLayer
62
256
370
-1
100
AcDbText
10
154
20
132
30
0
40
2.2
1
Temescal
50
0
41
1
51
0
7
standard
71
0
72
2
11
154
21
132
31
0
210
0
220
0
230
1
100
AcDbText
73
2
0
LINE
5
28E
100
AcDbEntity
8
0
6
DASHED
62
9
370
200
100
AcDbLine
10
178
20
128
11
166
21
128
0
LINE
5
28F
100
AcDbEntity
8
0
6
DASHED
62
9
370
200
100
AcDbLine
10
178
20
128
11
190
21
128
0
LINE
5
290
100
AcDbEntity
8
0
6
DASHED
62
9
370
200
100
AcDbLine
10
190
20
128
11
202
21
128
0
TEXT
5
291
100
AcDbEntity
8
0
6
ByLayer
62
256
370
-1
100
AcDbText
10
170
20
114
30
0
40
2.2
1
Mosswood Park
50
0
41
1
51
0
7
standard
71
0
11
170
21
114
31
0
210
0
220
0
230
1
100
AcDbText
73
2
0
LINE
5
292
100
AcDbEntity
8
0
6
ByLayer
62
2
370
200
100
AcDbLine
10
156
20
126
11
156
21
131.171572875
0
ARC
5
293
100
AcDbEntity
8
0
6
ByLayer
62
2
370
200
100
AcDbCircle
10
158
20
131.171572875
40
2
100
AcDbArc
50
135
51
180
0
LINE
5
294
100
AcDbEntity
8
0
6
ByLayer
62
2
370
200
100
AcDbLine
10
156.585786438
20
132.585786438
11
157.414213562
21
133.414213562
0
LINE
5
295
100
AcDbEntity
8
0
6
ByLayer
62
2
370
200
100
AcDbLine
10
158
20
134.828427125
11
158
21
138
0
ARC
5
296
100
AcDbEntity
8
0
6
ByLayer
62
2
370
200
100
AcDbCircle
10
156
20
134.828427125
40
2
100
AcDbArc
50
315
51
0
0
LINE
5
297
100
AcDbEntity
8
0
6
ByLayer
62
40
420
16755200
370
200
100
AcDbLine
10
162
20
126
11
162
21
131.171572875
0
ARC
5
298
100
AcDbEntity
8
0
6
ByLayer
62
40
420
16755200
370
200
100
AcDbCircle
10
160
20
131.171572875
40
2
100
AcDbArc
50
0
51
45
0
LINE
5
299
100
AcDbEntity
8
0
6
ByLayer
62
40
420
16755200
370
200
100
AcDbLine
10
161.414213562
20
132.585786438
11
160.585786438
21
133.414213562
0
LINE
5
29A
100
AcDbEntity
8
0
6
ByLayer
62
40
420
16755200
370
200
100
AcDbLine
10
160
20
134.828427125
11
160
21
138
0
ARC
5
29B
100
AcDbEntity
8
0
6
ByLayer
62
40
420
16755200
370
200
100
AcDbCircle
10
162
20
134.828427125
40
2
100
AcDbArc
50
180
51
225
0
LINE
5
29C
100
AcDbEntity
8
0
6
ByLayer
62
2
370
200
100
AcDbLine
10
158
20
138
11
158
21
152
0
LINE
5
29D
100
AcDbEntity
8
0
6
ByLayer
62
2
370
200
100
AcDbLine
10
158
20
152
11
158
21
164
0
LINE
5
29E
100
AcDbEntity
8
0
6
ByLayer
62
2
370
200
100
AcDbLine
10
158
20
164
11
158
21
176
0
LINE
5
29F
100
AcDbEntity
8
0
6
ByLayer
62
40
420
16755200
370
200
100
AcDbLine
10
160
20
138
11
160
21
152
0
LINE
5
2A0
100
AcDbEntity
8
0
6
ByLayer
62
40
420
16755200
370
200
100
AcDbLine
10
160
20
152
11
160
21
164
0
LINE
5
2A1
100
AcDbEntity
8
0
6
ByLayer
62
40
420
16755200
370
200
100
AcDbLine
10
160
20
164
11
160
21
176
0
LINE
5
2A2
100
AcDbEntity
8
0
6
DASHED
62
9
370
200
100
AcDbLine
10
152
20
128
11
143.656854249
21
128
0
ARC
5
2A3
100
AcDbEntity
8
0
6
DASHED
62
9
370
200
100
AcDbCircle
10
143.656854249
20
132
40
4
100
AcDbArc
50
225
51
270
0
LINE
5
2A4
100
AcDbEntity
8
0
6
DASHED
62
9
370
200
100
AcDbLine
10
137.171572875
20
132.828427125
11
140.828427125
21
129.171572875
0
LINE
5
2A5
100
AcDbEntity
8
0
6
DASHED
62
9
370
200
100
AcDbLine
10
136
20
152
11
136
21
135.656854249
0
ARC
5
2A6
100
AcDbEntity
8
0
6
DASHED
62
9
370
200
100
AcDbCircle
10
140
20
135.656854249
40
4
100
AcDbArc
50
180
51
225
0
INSERT
5
2A7
100
AcDbEntity
8
0
6
ByLayer
62
256
370
-1
100
AcDbBlockReference
2
STATION
10
158
20
148
30
0
41
1
42
1
43
0
50
0
70
1
71
1
44
1
45
1
0
INSERT
5
2A8
100
AcDbEntity
8
0
6
ByLayer
62
256
370
-1
100
AcDbBlockReference
2
STATION
10
160
20
148
30
0
41
1
42
1
43
0
50
0
70
1
71
1
44
1
45
1
0
TEXT
5
2A9
100
AcDbEntity
8
0
6
ByLayer
62
256
370
-1
100
AcDbText
10
156
20
148
30
0
40
2.2
1
Bushrod
50
0
41
1
51
0
7
standard
71
0
72
2
11
156
21
148
31
0
210
0
220
0
230
1
100
AcDbText
73
2
0
INSERT
5
2AA
100
AcDbEntity
8
0
6
ByLayer
62
256
370
-1
100
AcDbBlockReference
2
STATION
10
136
20
138
30
0
41
1
42
1
43
0
50
0
70
1
71
1
44
1
45
1
0
TEXT
5
2AB
100
AcDbEntity
8
0
6
ByLayer
62
256
370
-1
100
AcDbText
10
134
20
138
30
0
40
2.2
1
Emeryville
50
0
41
1
51
0
7
standard
71
0
72
2
11
134
21
138
31
0
210
0
220
0
230
1
100
AcDbText
73
2
0
INSERT
5
2AC
100
AcDbEntity
8
0
6
ByLayer
62
256
370
-1
100
AcDbBlockReference
2
STATION
10
136
20
148
30
0
41
1
42
1
43
0
50
0
70
1
71
1
44
1
45
1
0
TEXT
5
2AD
100
AcDbEntity
8
0
6
ByLayer
62
256
370
-1
100
AcDbText
10
134
20
148
30
0
40
2.2
1
Aquatic Park
50
0
41
1
51
0
7
standard
71
0
72
2
11
134
21
148
31
0
210
0
220
0
230
1
100
AcDbText
73
2
0
TEXT
5
2AE
100
AcDbEntity
8
0
6
ByLayer
62
256
370
-1
100
AcDbText
10
171
20
140
30
0
40
2.2
1
Rockridge
50
0
41
1
51
0
7
standard
71
0
11
171
21
140
31
0
210
0
220
0
230
1
100
AcDbText
73
2
0
INSERT
5
2AF
100
AcDbEntity
8
0
6
ByLayer
62
256
370
-1
100
AcDbBlockReference
2
STATION
10
282
20
188
30
0
41
1
42
1
43
0
50
0
70
1
71
1
44
1
45
1
0
INSERT
5
2B0
100
AcDbEntity
8
0
6
ByLayer
62
256
370
-1
100
AcDbBlockReference
2
STATION
10
264.914213562
20
160.914213562
30
0
41
1
42
1
43
0
50
0
70
1
71
1
44
1
45
1
0
INSERT
5
2B1
100
AcDbEntity
8
0
6
ByLayer
62
256
370
-1
100
AcDbBlockReference
2
STATION
10
257.085786438
20
153.085786438
30
0
41
1
42
1
43
0
50
0
70
1
71
1
44
1
45
1
0
TEXT
5
2B2
100
AcDbEntity
8
0
6
ByLayer
62
256
370
-1
100
AcDbText
10
258
20
150
30
0
40
2.2
1
Walnut Creek
50
0
41
1
51
0
7
standard
71
0
11
258
21
150
31
0
210
0
220
0
230
1
100
AcDbText
73
2
0
TEXT
5
2B3
100
AcDbEntity
8
0
6
ByLayer
62
256
370
-1
100
AcDbText
10
266
20
158
30
0
40
2.2
1
Pleasant Hill
50
0
41
1
51
0
7
standard
71
0
11
266
21
158
31
0
210
0
220
0
230
1
100
AcDbText
73
2
0
INSERT
5
2B4
100
AcDbEntity
8
0
6
ByLayer
62
256
370
-1
100
AcDbBlockReference
2
STATION
10
270
20
174
30
0
41
1
42
1
43
0
50
0
70
1
71
1
44
1
45
1
0
INSERT
5
2B5
100
AcDbEntity
8
0
6
ByLayer
62
256
370
-1
100
AcDbBlockReference
2
STATION
10
270
20
180
30
0
41
1
42
1
43
0
50
0
70
1
71
1
44
1
45
1
0
TEXT
5
2B6
100
AcDbEntity
8
0
6
ByLayer
62
256
370
-1
100
AcDbText
10
268
20
174
30
0
40
2.2
1
Central Concord
50
0
41
1
51
0
7
standard
71
0
72
2
11
268
21
174
31
0
210
0
220
0
230
1
100
AcDbText
73
2
0
TEXT
5
2B7
100
AcDbEntity
8
0
6
ByLayer
62
256
370
-1
100
AcDbText
10
268
20
180
30
0
40
2.2
1
North Concord
50
0
41
1
51
0
7
standard
71
0
72
2
11
268
21
180
31
0
210
0
220
0
230
1
100
AcDbText
73
2
0
TEXT
5
2B8
100
AcDbEntity
8
0
6
ByLayer
62
256
370
-1
100
AcDbText
10
282
20
184
30
0
40
2.2
1
Bay Point
50
0
41
1
51
0
7
standard
71
0
72
1
11
282
21
184
31
0
210
0
220
0
230
1
100
AcDbText
73
2
0
INSERT
5
2B9
100
AcDbEntity
8
0
6
ByLayer
62
256
370
-1
100
AcDbBlockReference
2
STATION
10
244
20
148
30
0
41
1
42
1
43
0
50
0
70
1
71
1
44
1
45
1
0
INSERT
5
2BA
100
AcDbEntity
8
0
6
ByLayer
62
256
370
-1
100
AcDbBlockReference
2
STATION
10
232
20
148
30
0
41
1
42
1
43
0
50
0
70
1
71
1
44
1
45
1
0
TEXT
5
2BB
100
AcDbEntity
8
0
6
ByLayer
62
256
370
-1
100
AcDbText
10
244
20
144
30
0
40
2.2
1
Lafayette
50
0
41
1
51
0
7
standard
71
0
72
1
11
244
21
144
31
0
210
0
220
0
230
1
100
AcDbText
73
2
0
TEXT
5
2BC
100
AcDbEntity
8
0
6
ByLayer
62
256
370
-1
100
AcDbText
10
232
20
152
30
0
40
2.2
1
Orinda
50
0
41
1
51
0
7
standard
71
0
72
1
11
232
21
152
31
0
210
0
220
0
230
1
100
AcDbText
73
2
0
ARC
5
2BD
100
AcDbEntity
8
0
6
ByLayer
62
56
420
8421376
370
200
100
AcDbCircle
10
250.343145751
20
152
40
4
100
AcDbArc
50
270
51
315
0
LINE
5
2BE
100
AcDbEntity
8
0
6
ByLayer
62
56
420
8421376
370
200
100
AcDbLine
10
268.828427125
20
164.828427125
11
253.171572875
21
149.171572875
0
LINE
5
2BF
100
AcDbEntity
8
0
6
ByLayer
62
56
420
8421376
370
200
100
AcDbLine
10
270
20
167.656854249
11
270
21
176
0
ARC
5
2C0
100
AcDbEntity
8
0
6
ByLayer
62
56
420
8421376
370
200
100
AcDbCircle
10
266
20
167.656854249
40
4
100
AcDbArc
50
315
51
0
0
LINE
5
2C1
100
AcDbEntity
8
0
6
ByLayer
62
56
420
8421376
370
200
100
AcDbLine
10
226
20
148
11
250.343145751
21
148
0
LINE
5
2C2
100
AcDbEntity
8
0
6
ByLayer
62
56
420
8421376
370
200
100
AcDbLine
10
186
20
148
11
226
21
148
0
LINE
5
2C3
100
AcDbEntity
8
0
6
ByLayer
62
56
420
8421376
370
200
100
AcDbLine
10
270
20
176
11
270
21
184
0
LINE
5
2C4
100
AcDbEntity
8
0
6
ByLayer
62
56
420
8421376
370
200
100
AcDbLine
10
274
20
188
11
282
21
188
0
ARC
5
2C5
100
AcDbEntity
8
0
6
ByLayer
62
56
420
8421376
370
200
100
AcDbCircle
10
274
20
184
40
4
100
AcDbArc
50
90
51
180
0
LINE
5
2C6
100
AcDbEntity
8
0
6
ByLayer
62
56
420
8421376
370
200
100
AcDbLine
10
158
20
76
11
158
21
131.171572875
0
LINE
5
2C7
100
AcDbEntity
8
0
6
ByLayer
62
56
420
8421376
370
200
100
AcDbLine
10
176.485281374
20
148
11
186
21
148
0
LINE
5
2C8
100
AcDbEntity
8
0
6
ByLayer
62
56
420
8421376
370
200
100
AcDbLine
10
158
20
131.171572875
11
173.656854249
21
146.828427125
0
ARC
5
2C9
100
AcDbEntity
8
0
6
ByLayer
62
56
420
8421376
370
200
100
AcDbCircle
10
176.485281374
20
144
40
4
100
AcDbArc
50
90
51
135
0
INSERT
5
2CA
100
AcDbEntity
8
0
6
ByLayer
62
256
370
-1
100
AcDbBlockReference
2
STATION
10
168.437902833
20
141.609475708
30
0
41
1
42
1
43
0
50
0
70
1
71
1
44
1
45
1
0
LINE
5
2CB
100
AcDbEntity
8
0
6
ByLayer
62
2
370
200
100
AcDbLine
10
158
20
176
11
158
21
182
0
LINE
5
2CC
100
AcDbEntity
8
0
6
ByLayer
62
40
420
16755200
370
200
100
AcDbLine
10
160
20
176
11
160
21
182
0
INSERT
5
2CD
100
AcDbEntity
8
0
6
ByLayer
62
256
370
-1
100
AcDbBlockReference
2
STATION
10
148
20
188
30
0
41
1
42
1
43
0
50
0
70
1
71
1
44
1
45
1
0
INSERT
5
2CE
100
AcDbEntity
8
0
6
ByLayer
62
256
370
-1
100
AcDbBlockReference
2
STATION
10
148
20
186
30
0
41
1
42
1
43
0
50
0
70
1
71
1
44
1
45
1
0
TEXT
5
2CF
100
AcDbEntity
8
0
6
ByLayer
62
256
370
-1
100
AcDbText
10
162
20
176
30
0
40
2.2
1
Downtown Berkeley
50
0
41
1
51
0
7
standard
71
0
11
162
21
176
31
0
210
0
220
0
230
1
100
AcDbText
73
2
0
INSERT
5
2D0
100
AcDbEntity
8
0
6
ByLayer
62
256
370
-1
100
AcDbBlockReference
2
STATION
10
158
20
176
30
0
41
1
42
1
43
0
50
0
70
1
71
1
44
1
45
1
0
INSERT
5
2D1
100
AcDbEntity
8
0
6
ByLayer
62
256
370
-1
100
AcDbBlockReference
2
STATION
10
160
20
176
30
0
41
1
42
1
43
0
50
0
70
1
71
1
44
1
45
1
0
TEXT
5
2D2
100
AcDbEntity
8
0
6
ByLayer
62
256
370
-1
100
AcDbText
10
152
20
182
30
0
40
2.2
1
North Berkeley
50
0
41
1
51
0
7
standard
71
0
72
2
11
152
21
182
31
0
210
0
220
0
230
1
100
AcDbText
73
2
0
INSERT
5
2D3
100
AcDbEntity
8
0
6
ByLayer
62
256
370
-1
100
AcDbBlockReference
2
STATION
10
126
20
186
30
0
41
1
42
1
43
0
50
0
70
1
71
1
44
1
45
1
0
INSERT
5
2D4
100
AcDbEntity
8
0
6
ByLayer
62
256
370
-1
100
AcDbBlockReference
2
STATION
10
126
20
188
30
0
41
1
42
1
43
0
50
0
70
1
71
1
44
1
45
1
0
INSERT
5
2D5
100
AcDbEntity
8
0
6
ByLayer
62
256
370
-1
100
AcDbBlockReference
2
STATION
10
114
20
188
30
0
41
1
42
1
43
0
50
0
70
1
71
1
44
1
45
1
0
INSERT
5
2D6
100
AcDbEntity
8
0
6
ByLayer
62
256
370
-1
100
AcDbBlockReference
2
STATION
10
114
20
186
30
0
41
1
42
1
43
0
50
0
70
1
71
1
44
1
45
1
0
INSERT
5
2D7
100
AcDbEntity
8
0
6
ByLayer
62
256
370
-1
100
AcDbBlockReference
2
STATION
10
102
20
188
30
0
41
1
42
1
43
0
50
0
70
1
71
1
44
1
45
1
0
INSERT
5
2D8
100
AcDbEntity
8
0
6
ByLayer
62
256
370
-1
100
AcDbBlockReference
2
STATION
10
102
20
186
30
0
41
1
42
1
43
0
50
0
70
1
71
1
44
1
45
1
0
TEXT
5
2D9
100
AcDbEntity
8
0
6
ByLayer
62
256
370
-1
100
AcDbText
10
126
20
192
30
0
40
2.2
1
Albany
50
0
41
1
51
0
7
standard
71
0
72
1
11
126
21
192
31
0
210
0
220
0
230
1
100
AcDbText
73
2
0
TEXT
5
2DA
100
AcDbEntity
8
0
6
ByLayer
62
256
370
-1
100
AcDbText
10
114
20
182
30
0
40
2.2
1
El Cerrito
50
0
41
1
51
0
7
standard
71
0
72
1
11
114
21
182
31
0
210
0
220
0
230
1
100
AcDbText
73
2
0
TEXT
5
2DB
100
AcDbEntity
8
0
6
ByLayer
62
256
370
-1
100
AcDbText
10
102
20
192
30
0
40
2.2
1
Richmond City
50
0
41
1
51
0
7
standard
71
0
72
1
11
102
21
192
31
0
210
0
220
0
230
1
100
AcDbText
73
2
0
ARC
5
2DC
100
AcDbEntity
8
0
6
ByLayer
62
40
420
16755200
370
200
100
AcDbCircle
10
154
20
182
40
6
100
AcDbArc
50
0
51
90
0
LINE
5
2DD
100
AcDbEntity
8
0
6
ByLayer
62
40
420
16755200
370
200
100
AcDbLine
10
154
20
188
11
102
21
188
0
ARC
5
2DE
100
AcDbEntity
8
0
6
ByLayer
62
2
370
200
100
AcDbCircle
10
154
20
182
40
4
100
AcDbArc
50
0
51
90
0
LINE
5
2DF
100
AcDbEntity
8
0
6
ByLayer
62
2
370
200
100
AcDbLine
10
102
20
186
11
154
21
186
0
INSERT
5
2E0
100
AcDbEntity
8
0
6
ByLayer
62
256
370
-1
100
AcDbBlockReference
2
STATION
10
-36
20
188
30
0
41
1
42
1
43
0
50
0
70
1
71
1
44
1
45
1
0
TEXT
5
2E1
100
AcDbEntity
8
0
6
ByLayer
62
256
370
-1
100
AcDbText
10
-38
20
188
30
0
40
2.2
1
San Rafael
50
0
41
1
51
0
7
standard
71
0
72
2
11
-38
21
188
31
0
210
0
220
0
230
1
100
AcDbText
73
2
0
INSERT
5
2E2
100
AcDbEntity
8
0
6
ByLayer
62
256
370
-1
100
AcDbBlockReference
2
STATION
10
-36
20
168
30
0
41
1
42
1
43
0
50
0
70
1
71
1
44
1
45
1
0
TEXT
5
2E3
100
AcDbEntity
8
0
6
ByLayer
62
256
370
-1
100
AcDbText
10
-38
20
168
30
0
40
2.2
1
Larkspur
50
0
41
1
51
0
7
standard
71
0
72
2
11
-38
21
168
31
0
210
0
220
0
230
1
100
AcDbText
73
2
0
INSERT
5
2E4
100
AcDbEntity
8
0
6
ByLayer
62
256
370
-1
100
AcDbBlockReference
2
STATION
10
-36
20
148
30
0
41
1
42
1
43
0
50
0
70
1
71
1
44
1
45
1
0
TEXT
5
2E5
100
AcDbEntity
8
0
6
ByLayer
62
256
370
-1
100
AcDbText
10
-38
20
148
30
0
40
2.2
1
Mill Valley
50
0
41
1
51
0
7
standard
71
0
72
2
11
-38
21
148
31
0
210
0
220
0
230
1
100
AcDbText
73
2
0
INSERT
5
2E6
100
AcDbEntity
8
0
6
ByLayer
62
256
370
-1
100
AcDbBlockReference
2
STATION
10
-36
20
128
30
0
41
1
42
1
43
0
50
0
70
1
71
1
44
1
45
1
0
TEXT
5
2E7
100
AcDbEntity
8
0
6
ByLayer
62
256
370
-1
100
AcDbText
10
-38
20
128
30
0
40
2.2
1
Sausalito
50
0
41
1
51
0
7
standard
71
0
72
2
11
-38
21
128
31
0
210
0
220
0
230
1
100
AcDbText
73
2
0
LINE
5
2E8
100
AcDbEntity
8
0
6
ByLayer
62
1
370
200
100
AcDbLine
10
-36
20
152
11
-36
21
188
0
INSERT
5
2E9
100
AcDbEntity
8
0
6
ByLayer
62
256
370
-1
100
AcDbBlockReference
2
STATION
10
158
20
163
30
0
41
1
42
1
43
0
50
0
70
1
71
1
44
1
45
1
0
INSERT
5
2EA
100
AcDbEntity
8
0
6
ByLayer
62
256
370
-1
100
AcDbBlockReference
2
STATION
10
160
20
163
30
0
41
1
42
1
43
0
50
0
70
1
71
1
44
1
45
1
0
TEXT
5
2EB
100
AcDbEntity
8
0
6
ByLayer
62
256
370
-1
100
AcDbText
10
156
20
163
30
0
40
2.2
1
Ashby
50
0
41
1
51
0
7
standard
71
0
72
2
11
156
21
163
31
0
210
0
220
0
230
1
100
AcDbText
73
2
0
LINE
5
2EC
100
AcDbEntity
8
Transfers
6
ByLayer
62
256
370
-1
100
AcDbLine
10
158
20
148
11
160
21
148
0
LINE
5
2ED
100
AcDbEntity
8
Transfers
6
ByLayer
62
256
370
-1
100
AcDbLine
10
158
20
163
11
160
21
163
0
LINE
5
2EE
100
AcDbEntity
8
Transfers
6
ByLayer
62
256
370
-1
100
AcDbLine
10
158
20
176
11
160
21
176
0
LINE
5
2EF
100
AcDbEntity
8
Transfers
6
ByLayer
62
256
370
-1
100
AcDbLine
10
148
20
186
11
148
21
188
0
LINE
5
2F0
100
AcDbEntity
8
Transfers
6
ByLayer
62
256
370
-1
100
AcDbLine
10
126
20
186
11
126
21
188
0
LINE
5
2F1
100
AcDbEntity
8
Transfers
6
ByLayer
62
256
370
-1
100
AcDbLine
10
114
20
186
11
114
21
188
0
LINE
5
2F2
100
AcDbEntity
8
Transfers
6
ByLayer
62
256
370
-1
100
AcDbLine
10
102
20
186
11
102
21
188
0
LINE
5
2F3
100
AcDbEntity
8
Outline
6
ByLayer
62
256
370
-1
100
AcDbLine
10
-100
20
220
11
320
21
220
0
LINE
5
2F4
100
AcDbEntity
8
Outline
6
ByLayer
62
256
370
-1
100
AcDbLine
10
320
20
220
11
320
21
-140
0
LINE
5
2F5
100
AcDbEntity
8
Outline
6
ByLayer
62
256
370
-1
100
AcDbLine
10
320
20
-140
11
-100
21
-140
0
LINE
5
2F6
100
AcDbEntity
8
Outline
6
ByLayer
62
256
370
-1
100
AcDbLine
10
-100
20
-140
11
-100
21
220
0
LINE
5
2F7
100
AcDbEntity
8
Coastline
6
ByLayer
62
256
370
-1
100
AcDbLine
10
-66
20
58
11
-42
21
82
0
LINE
5
2F8
100
AcDbEntity
8
Coastline
6
ByLayer
62
256
370
-1
100
AcDbLine
10
-42
20
82
11
-42
21
102
0
LINE
5
2F9
100
AcDbEntity
8
Coastline
6
ByLayer
62
256
370
-1
100
AcDbLine
10
-42
20
102
11
62
21
102
0
LINE
5
2FA
100
AcDbEntity
8
Coastline
6
ByLayer
62
256
370
-1
100
AcDbLine
10
62
20
102
11
114
21
50
0
LINE
5
2FB
100
AcDbEntity
8
Coastline
6
ByLayer
62
256
370
-1
100
AcDbLine
10
114
20
50
11
114
21
-4
0
LINE
5
2FC
100
AcDbEntity
8
Coastline
6
ByLayer
62
256
370
-1
100
AcDbLine
10
114
20
-4
11
82
21
-4
0
LINE
5
2FD
100
AcDbEntity
8
Coastline
6
ByLayer
62
256
370
-1
100
AcDbLine
10
82
20
-4
11
82
21
-14
0
LINE
5
2FE
100
AcDbEntity
8
Coastline
6
ByLayer
62
256
370
-1
100
AcDbLine
10
82
20
-14
11
114
21
-14
0
LINE
5
2FF
100
AcDbEntity
8
Coastline
6
ByLayer
62
256
370
-1
100
AcDbLine
10
114
20
-14
11
114
21
-44
0
LINE
5
300
100
AcDbEntity
8
Coastline
6
ByLayer
62
256
370
-1
100
AcDbLine
10
114
20
-44
11
82
21
-44
0
LINE
5
301
100
AcDbEntity
8
Coastline
6
ByLayer
62
256
370
-1
100
AcDbLine
10
82
20
-44
11
82
21
-48
0
LINE
5
302
100
AcDbEntity
8
Coastline
6
ByLayer
62
256
370
-1
100
AcDbLine
10
82
20
-48
11
114
21
-48
0
LINE
5
303
100
AcDbEntity
8
Coastline
6
ByLayer
62
256
370
-1
100
AcDbLine
10
114
20
-48
11
122
21
-56
0
LINE
5
304
100
AcDbEntity
8
Coastline
6
ByLayer
62
256
370
-1
100
AcDbLine
10
122
20
-56
11
122
21
-80
0
LINE
5
305
100
AcDbEntity
8
Coastline
6
ByLayer
62
256
370
-1
100
AcDbLine
10
122
20
-80
11
114
21
-88
0
LINE
5
306
100
AcDbEntity
8
Coastline
6
ByLayer
62
256
370
-1
100
AcDbLine
10
114
20
-88
11
114
21
-100
0
LINE
5
307
100
AcDbEntity
8
Coastline
6
ByLayer
62
256
370
-1
100
AcDbLine
10
114
20
-100
11
154
21
-140
0
LINE
5
308
100
AcDbEntity
8
Coastline
6
ByLayer
62
256
370
-1
100
AcDbLine
10
-66
20
58
11
-66
21
-140
0
LINE
5
309
100
AcDbEntity
8
Coastline
6
ByLayer
62
256
370
-1
100
AcDbLine
10
-66
20
-140
11
154
21
-140
0
LINE
5
30A
100
AcDbEntity
8
Coastline
6
ByLayer
62
256
370
-1
100
AcDbLine
10
-66
20
122
11
-30
21
122
0
LINE
5
30B
100
AcDbEntity
8
Coastline
6
ByLayer
62
256
370
-1
100
AcDbLine
10
-30
20
122
11
-30
21
188
0
LINE
5
30C
100
AcDbEntity
8
Coastline
6
ByLayer
62
256
370
-1
100
AcDbLine
10
-66
20
122
11
-100
21
156
0
LINE
5
30D
100
AcDbEntity
8
Coastline
6
ByLayer
62
256
370
-1
100
AcDbLine
10
-30
20
188
11
2
21
220
0
LINE
5
30E
100
AcDbEntity
8
Coastline
6
ByLayer
62
256
370
-1
100
AcDbLine
10
2
20
220
11
-100
21
220
0
LINE
5
30F
100
AcDbEntity
8
Coastline
6
ByLayer
62
256
370
-1
100
AcDbLine
10
-100
20
220
11
-100
21
156
0
ENDSEC
0
SECTION
2
OBJECTS
0
DICTIONARY
5
C
330
0
100
AcDbDictionary
281
1
3
ACAD_GROUP
350
D
0
DICTIONARY
5
D
330
C
100
AcDbDictionary
281
1
0
ENDSEC
0
EOF
